<svg width="20" height="20" viewBox="0 0 20 20" fill="none" xmlns="http://www.w3.org/2000/svg">
<path d="M15.5777 2.43152L13.5777 1.38197C11.8221 0.460656 10.9443 0 10 0C9.05573 0 8.17792 0.460655 6.42229 1.38197L6.10057 1.5508L15.0236 6.64967L19.0403 4.64132C18.3941 3.90949 17.3515 3.36234 15.5777 2.43152Z" fill="#3576FF"/>
<path d="M19.7484 5.96434L15.75 7.96353V11C15.75 11.4142 15.4142 11.75 15 11.75C14.5858 11.75 14.25 11.4142 14.25 11V8.71353L10.75 10.4635V19.904C11.4679 19.7252 12.2848 19.2965 13.5777 18.618L15.5777 17.5685C17.7294 16.4393 18.8052 15.8748 19.4026 14.8603C20 13.8458 20 12.5833 20 10.0585V9.94151C20 8.04885 20 6.86557 19.7484 5.96434Z" fill="#3576FF"/>
<path d="M9.25 19.904V10.4635L0.251639 5.96434C0 6.86557 0 8.04885 0 9.94151V10.0585C0 12.5833 0 13.8458 0.597397 14.8603C1.19479 15.8748 2.27062 16.4393 4.42228 17.5685L6.42229 18.618C7.71524 19.2965 8.53208 19.7252 9.25 19.904Z" fill="#3576FF"/>
<path d="M0.959692 4.64132L10 9.16147L13.4112 7.4559L4.52456 2.37785L4.42229 2.43152C2.64855 3.36234 1.6059 3.90949 0.959692 4.64132Z" fill="#3576FF"/>
</svg>
