<svg width="24" height="24" viewBox="0 0 24 24" fill="none" xmlns="http://www.w3.org/2000/svg">
<path d="M3.7784 3.65484C3.59736 4.01573 3.50832 4.46093 3.33024 5.35133L2.73232 8.34093C2.35373 10.2339 3.80159 12 5.73204 12C7.30367 12 8.6196 10.8091 8.77598 9.24527L8.84499 8.55515C8.6819 10.4038 10.139 12 12.0003 12C13.8742 12 15.3385 10.382 15.152 8.51737L15.225 9.24527C15.3814 10.8091 16.6973 12 18.269 12C20.1994 12 21.6473 10.2339 21.2687 8.34093L20.6708 5.35133C20.4927 4.46095 20.4036 4.01573 20.2226 3.65484C19.8411 2.89439 19.1547 2.33168 18.3342 2.10675C17.9448 2 17.4908 2 16.5828 2H14.5003H7.4182C6.51017 2 6.05616 2 5.66677 2.10675C4.84628 2.33168 4.15987 2.89439 3.7784 3.65484Z" fill="#3576FF"/>
<path d="M18.2685 13.4997C19.0856 13.4997 19.8448 13.2874 20.5 12.9187V13.9997C20.5 17.771 20.5 19.6566 19.3284 20.8282C18.3853 21.7712 16.9796 21.9552 14.5 21.991V18.4998C14.5 17.5651 14.5 17.0978 14.299 16.7498C14.1674 16.5217 13.978 16.3324 13.75 16.2007C13.4019 15.9998 12.9346 15.9998 12 15.9998C11.0654 15.9998 10.5981 15.9998 10.25 16.2007C10.022 16.3324 9.83261 16.5217 9.70096 16.7498C9.5 17.0978 9.5 17.5651 9.5 18.4998V21.991C7.02043 21.9552 5.61466 21.7712 4.67157 20.8282C3.5 19.6566 3.5 17.771 3.5 13.9997V12.9186C4.15524 13.2874 4.91439 13.4997 5.73157 13.4997C6.92864 13.4997 8.02617 13.0361 8.84435 12.2717C9.67168 13.0318 10.7765 13.4997 11.9998 13.4997C13.2232 13.4997 14.3281 13.0317 15.1555 12.2715C15.9737 13.036 17.0713 13.4997 18.2685 13.4997Z" fill="#3576FF"/>
</svg>
