<svg width="20" height="24" viewBox="0 0 20 24" fill="none" xmlns="http://www.w3.org/2000/svg">
<path d="M14.2165 2.22344C13.9911 2.91522 13.6264 3.55638 13.1868 4.08963V4.09061C12.7433 4.62692 12.1509 5.10108 11.4918 5.41548C10.8869 5.70403 10.2239 5.85942 9.56405 5.80798L9.36213 5.79223L9.33554 5.59117C9.24982 4.94275 9.3488 4.28633 9.55729 3.67887C9.7999 2.972 10.1929 2.327 10.6145 1.83825L10.6145 1.83819C11.0508 1.32702 11.636 0.882282 12.2627 0.560047C12.8915 0.236703 13.5668 0.0345003 14.1815 0.00946903L14.4138 0L14.4393 0.232125C14.5138 0.911 14.4232 1.58913 14.2165 2.22344Z" fill="#1C1C1C"/>
<path d="M18.4888 8.3218C18.266 8.45961 16.1131 9.7918 16.1397 12.4771C16.1679 15.7143 18.9128 16.8365 19.0643 16.8984H19.0653L19.0718 16.9011L19.2872 16.9903L19.2134 17.2107C19.2091 17.2238 19.214 17.2098 19.2076 17.2304C19.1376 17.4547 18.6628 18.9758 17.5903 20.5431C17.1036 21.254 16.6077 21.9638 16.0223 22.5114C15.4161 23.0783 14.7238 23.461 13.8686 23.4768C13.0625 23.492 12.5347 23.2636 11.9862 23.0263C11.4631 22.7999 10.9191 22.5645 10.0677 22.5645C9.17347 22.5645 8.6018 22.8081 8.05117 23.0426C7.53286 23.2635 7.03158 23.477 6.30941 23.5058H6.30842C5.47451 23.5368 4.75142 23.1303 4.10876 22.5282C3.49392 21.9522 2.95525 21.1979 2.46439 20.4879C1.3563 18.8879 0.392625 16.5599 0.0948902 14.1927C-0.15 12.2456 0.0547026 10.2676 0.996078 8.63408C1.52159 7.72008 2.25608 6.97419 3.1148 6.45372C3.96959 5.93563 4.94759 5.6408 5.96558 5.62553C6.85683 5.60936 7.6972 5.94285 8.43253 6.23466C8.95294 6.44116 9.41659 6.62517 9.76419 6.62517C10.0713 6.62517 10.5239 6.44671 11.0516 6.23866C11.9428 5.8873 13.0331 5.45749 14.186 5.57213C14.6701 5.59319 15.6786 5.70916 16.7094 6.26782C17.3661 6.62372 18.0322 7.15803 18.5798 7.95939L18.7241 8.17072L18.5085 8.30999C18.4969 8.31744 18.5081 8.30983 18.4888 8.3218Z" fill="#1C1C1C"/>
</svg>
