<svg width="36" height="36" viewBox="0 0 36 36" fill="none" xmlns="http://www.w3.org/2000/svg">
<path d="M29.5017 4.73453C28.7158 4.52296 27.8942 4.63145 27.1883 5.03997C25.7334 5.88211 25.2292 7.75336 26.0644 9.21144C26.4694 9.91851 27.125 10.4243 27.9105 10.6358C28.1694 10.7058 28.4364 10.7414 28.7046 10.7415C29.2326 10.7415 29.7541 10.6025 30.2241 10.3305C31.679 9.48834 32.1832 7.61709 31.348 6.15901C30.9429 5.45187 30.2872 4.94603 29.5017 4.73453ZM29.6957 9.4176C29.2343 9.68451 28.6978 9.75545 28.1847 9.61743C27.672 9.4794 27.244 9.14907 26.9794 8.68726C26.4321 7.73149 26.7627 6.50488 27.7165 5.95278C28.0238 5.77496 28.3645 5.68411 28.7095 5.68411C28.8823 5.68411 29.0563 5.70689 29.2274 5.75295C29.7401 5.89097 30.1681 6.2213 30.4327 6.68312C30.9802 7.63896 30.6496 8.86557 29.6957 9.4176Z" fill="#858585"/>
<path d="M35.5655 9.29364L34.5849 8.44869C34.6622 7.87043 34.6535 7.28393 34.559 6.70823L35.483 5.91537C35.8918 5.56458 35.9944 4.97086 35.7268 4.50363L34.8785 3.02276C34.7485 2.79549 34.5427 2.62109 34.2973 2.52996C34.0518 2.43883 33.7821 2.43675 33.5352 2.5241L32.3161 2.95505C31.8563 2.60178 31.3465 2.31875 30.8035 2.11523L30.5835 0.917798C30.4859 0.385879 30.0232 0 29.4835 0L27.7793 0.000210939C27.2408 0.000351566 26.7772 0.385386 26.6772 0.915618L26.4359 2.19363C25.8998 2.41938 25.399 2.7213 24.9491 3.09005L23.807 2.68589C23.2988 2.50617 22.7335 2.715 22.4631 3.18301L21.6075 4.66401C21.3376 5.13124 21.4378 5.72539 21.8458 6.07681L22.8264 6.92177C22.7491 7.50002 22.7579 8.08653 22.8524 8.66223L21.9284 9.45508C21.5196 9.80587 21.417 10.3996 21.6845 10.8668L22.5327 12.3476C22.6628 12.5749 22.8685 12.7494 23.114 12.8405C23.3595 12.9317 23.6292 12.9337 23.876 12.8464L25.0952 12.4154C25.5551 12.7686 26.0648 13.0517 26.6078 13.2552L26.8278 14.4528C26.9255 14.9846 27.3883 15.3705 27.9281 15.3705L29.632 15.3702C30.1705 15.3701 30.634 14.9851 30.7341 14.4548L30.9753 13.1768C31.5114 12.951 32.0122 12.649 32.4621 12.2803L33.6044 12.6845C34.1127 12.8644 34.6779 12.6552 34.9481 12.1874L35.8038 10.7063C36.0736 10.2391 35.9734 9.64507 35.5655 9.29364ZM34.8905 10.1787L34.0349 11.6598C34.0274 11.6733 34.0154 11.6837 34.001 11.6892C33.9867 11.6948 33.9708 11.6952 33.9562 11.6903L32.5246 11.1837C32.4344 11.1517 32.3372 11.1449 32.2434 11.164C32.1496 11.1831 32.0628 11.2274 31.9923 11.2921C31.5109 11.7329 30.9469 12.074 30.3328 12.2955C30.2464 12.3266 30.1696 12.3797 30.11 12.4496C30.0505 12.5194 30.0102 12.6037 29.9932 12.6939L29.6978 14.2592C29.695 14.2748 29.687 14.289 29.6749 14.2993C29.6629 14.3095 29.6476 14.3153 29.6318 14.3155L27.9281 14.3158C27.913 14.3156 27.8984 14.3101 27.8869 14.3003C27.8754 14.2905 27.8677 14.277 27.8651 14.2621L27.5896 12.7621C27.5722 12.6679 27.5296 12.5802 27.4662 12.5084C27.4027 12.4366 27.321 12.3834 27.2296 12.3545C26.6048 12.1573 26.0363 11.8424 25.5401 11.4187C25.3759 11.2934 25.2032 11.2614 25.0219 11.3226L23.5245 11.8518C23.5104 11.857 23.495 11.8569 23.481 11.8517C23.467 11.8465 23.4553 11.8364 23.448 11.8234L22.5998 10.3426C22.5918 10.3285 22.589 10.3121 22.5918 10.2962C22.5946 10.2803 22.6029 10.2659 22.6152 10.2554L23.771 9.26355C23.8433 9.2015 23.8975 9.12101 23.9277 9.03064C23.9579 8.94028 23.9631 8.84341 23.9427 8.75033C23.8024 8.11104 23.792 7.45812 23.9117 6.80962C23.9284 6.71904 23.9211 6.62566 23.8906 6.53878C23.86 6.45189 23.8072 6.37453 23.7374 6.3144L22.5342 5.27777C22.5223 5.26721 22.5144 5.25282 22.512 5.23708C22.5095 5.22134 22.5127 5.20525 22.5208 5.19157L23.3764 3.71057C23.384 3.69714 23.3959 3.68675 23.4103 3.68119C23.4247 3.67562 23.4405 3.67522 23.4552 3.68005L24.8868 4.18666C24.977 4.21854 25.0742 4.22529 25.168 4.20618C25.2618 4.18707 25.3486 4.14282 25.4191 4.07816C25.9004 3.63722 26.4644 3.29618 27.0784 3.07479C27.1648 3.04372 27.2416 2.99062 27.3012 2.92074C27.3608 2.85087 27.4011 2.76664 27.4181 2.6764L27.7136 1.11102C27.7163 1.09542 27.7244 1.08126 27.7364 1.07098C27.7485 1.06069 27.7637 1.05494 27.7796 1.0547H29.4834C29.5141 1.0547 29.5405 1.0772 29.5462 1.10835L29.8218 2.60834C29.8391 2.70255 29.8818 2.79027 29.9452 2.86208C30.0086 2.93389 30.0904 2.98708 30.1817 3.01594C30.8067 3.21324 31.3752 3.52803 31.8713 3.95174C31.9417 4.01177 32.0266 4.05226 32.1175 4.06913C32.2085 4.086 32.3023 4.07866 32.3895 4.04786L33.8869 3.51854C33.901 3.51343 33.9164 3.51349 33.9304 3.51872C33.9444 3.52395 33.9561 3.53401 33.9634 3.54709L34.8116 5.02788C34.8195 5.04194 34.8224 5.05833 34.8196 5.07425C34.8167 5.09016 34.8085 5.1046 34.7962 5.11507L33.6404 6.10691C33.568 6.16896 33.5139 6.24944 33.4837 6.33981C33.4534 6.43018 33.4482 6.52705 33.4687 6.62012C33.6089 7.25927 33.6193 7.9122 33.4996 8.56084C33.4829 8.65141 33.4902 8.74479 33.5207 8.83168C33.5513 8.91856 33.6041 8.99592 33.6739 9.05605L34.8771 10.0927C34.889 10.1032 34.8968 10.1176 34.8993 10.1333C34.9017 10.149 34.8986 10.1651 34.8905 10.1787ZM7.62893 18.9933C7.62865 18.0567 6.85134 17.2288 5.90049 17.233L5.60363 17.2323L5.60145 14.5948C5.60068 13.7938 4.35149 13.9827 4.54689 14.7295L4.54893 17.2295L3.03411 17.2255L3.02658 8.18719C3.02652 8.09378 3.00164 8.00206 2.95451 7.92141L1.69872 5.77397L1.69801 2.94141L5.8673 2.96082L5.86801 5.75942L4.61299 7.91677C4.56603 7.99739 4.54133 8.08904 4.54141 8.18234L4.54429 11.6592C4.3678 12.393 5.59976 12.5228 5.59906 11.7833L5.59625 8.32402L6.85119 6.16681C6.89808 6.08626 6.92278 5.99473 6.92277 5.90152L6.92137 0.527208C6.92137 0.255237 6.67021 0 6.39247 0L1.16849 0.015258C0.882522 0.0160314 0.643176 0.255307 0.642684 0.541411L0.64409 5.91706C0.6441 6.01057 0.668973 6.1024 0.716161 6.18313L1.97202 8.3307L1.97941 17.2227L1.68212 17.2219C-0.371091 17.2278 -0.632726 20.3953 1.38639 20.7474L1.36923 31.2603C1.36466 34.4805 6.20157 34.456 6.20593 31.2728L6.22316 20.7289C7.02269 20.5724 7.62921 19.8531 7.62893 18.9933ZM1.69773 1.88671L1.69752 1.06841L5.86674 1.05617L5.86695 1.90612L1.69773 1.88671ZM3.79398 32.6844C3.04254 32.6844 2.42287 31.9982 2.42393 31.2621L2.44108 20.7712L5.16839 20.7633L5.15123 31.2713C5.15018 32.0482 4.54127 32.6823 3.79398 32.6844ZM5.89824 19.7064L1.68269 19.7187C0.829858 19.7187 0.837241 18.2791 1.68226 18.2767L5.90063 18.2877C6.74685 18.2877 6.7529 19.7039 5.89824 19.7064Z" fill="#858585"/>
<path d="M33.7394 29.89L33.7383 27.5583C33.7368 23.7302 32.0081 20.1584 28.9956 17.7589C28.6948 17.5192 28.1871 17.4948 27.8613 17.7047C26.7105 16.9234 25.4496 16.3565 24.1017 16.0156C24.1549 15.7327 24.0975 15.3433 23.8173 15.1977C22.1397 14.3261 20.1368 14.3268 18.46 15.2C18.1798 15.3458 18.1229 15.7356 18.1763 16.0186C17.5615 16.1743 16.9601 16.379 16.378 16.6309L16.4297 10.4218C18.5783 9.88893 19.7131 8.50067 19.7192 6.38488C19.726 4.04134 18.3349 1.34279 16.4833 0.10795C16.0357 -0.0732465 15.7624 0.0724423 15.6634 0.545158L15.6506 4.9282C15.6313 5.16396 15.5061 5.29376 15.2747 5.31766L13.0506 5.30655C12.8428 5.3055 12.6743 5.12817 12.6749 4.91111L12.6876 0.528001C12.5918 0.0555672 12.3198 -0.0920201 11.8716 0.0852393C10.0121 1.30208 8.60475 3.98741 8.59792 6.33151C8.59181 8.4454 9.71724 9.84407 11.8601 10.3986L11.8018 19.155C9.71478 21.4484 8.54814 24.4222 8.54948 27.5689L8.55046 29.8946C6.47102 30.5295 6.87314 33.7129 9.09623 33.7129C10.6517 33.7129 12.1063 34.1753 13.4641 34.9045C14.8275 35.6209 16.3627 35.9995 17.9039 35.9995H17.9079L24.387 35.9968C25.9297 35.9961 27.466 35.6162 28.83 34.8981C30.1865 34.1605 31.6402 33.7034 33.196 33.7027C35.3889 33.7019 35.8534 30.5075 33.7394 29.89ZM27.4182 18.6799L27.4208 24.8644C27.4208 25.0043 27.4764 25.1383 27.5753 25.2372C27.6742 25.336 27.8083 25.3916 27.9481 25.3916H27.9483C28.0176 25.3916 28.0861 25.3779 28.1501 25.3514C28.2141 25.3248 28.2722 25.286 28.3211 25.237C28.3701 25.188 28.4089 25.1298 28.4354 25.0658C28.4619 25.0019 28.4755 24.9333 28.4755 24.864L28.4729 18.6925C31.1497 20.8894 32.6822 24.1109 32.6837 27.5588L32.6848 29.8075H28.4776L28.4767 27.6671C28.4766 27.5273 28.421 27.3932 28.3221 27.2944C28.2232 27.1955 28.0891 27.14 27.9493 27.14H27.9491C27.8798 27.14 27.8113 27.1537 27.7473 27.1802C27.6833 27.2067 27.6252 27.2456 27.5763 27.2946C27.5273 27.3436 27.4885 27.4017 27.462 27.4657C27.4355 27.5297 27.4219 27.5983 27.422 27.6675L27.4229 29.8076H24.1076L24.1023 17.1069C25.291 17.4387 26.4028 17.9662 27.4182 18.6799ZM23.0471 15.9978L23.0529 29.8075H19.2369L19.2311 15.9994C19.8326 15.7357 20.4822 15.5994 21.1389 15.5991C21.7957 15.5989 22.4454 15.7346 23.0471 15.9978ZM18.1822 29.8075H14.867L14.8623 18.6852C15.8661 17.9783 16.9948 17.4408 18.1768 17.1098L18.1822 29.8075ZM9.65269 6.3346C9.6574 4.71156 10.4778 2.84137 11.6297 1.6535L11.6203 4.90809C11.6179 5.70551 12.2573 6.35738 13.0455 6.36132L15.2696 6.37243C16.0384 6.37243 16.7032 5.69827 16.7054 4.93129L16.7149 1.68057C17.8599 2.88033 18.6694 4.75874 18.6646 6.38192C18.6596 8.10966 17.7258 9.12217 15.8098 9.47718C15.6894 9.49948 15.5805 9.56298 15.5018 9.65679C15.4231 9.75059 15.3795 9.86887 15.3785 9.99131L15.3189 17.1533C15.0106 17.3256 14.71 17.5115 14.4182 17.7104C14.0924 17.5008 13.5846 17.5254 13.2841 17.7655C13.1414 17.8799 13.0012 17.9973 12.8635 18.1176L12.9176 9.98168C12.9184 9.85878 12.8763 9.73946 12.7985 9.64433C12.7207 9.5492 12.6121 9.48423 12.4914 9.46065C10.5762 9.08603 9.64763 8.06353 9.65269 6.3346ZM13.8075 18.6986L13.8122 29.8075H9.60509L9.60411 27.5685C9.60277 24.1206 11.1324 20.8977 13.8075 18.6986ZM33.8467 32.372C33.7625 32.4597 33.6614 32.5293 33.5494 32.5768C33.4375 32.6242 33.3171 32.6485 33.1955 32.648C31.4711 32.6487 29.8462 33.1551 28.3386 33.9648C27.1254 34.6036 25.7589 34.9416 24.3866 34.9421L17.9075 34.9448H17.9039C16.533 34.9447 15.1674 34.608 13.9547 33.9708C12.4939 33.1896 10.7828 32.5644 9.09623 32.6582C7.91462 32.6582 7.93761 30.8626 9.13308 30.8622H33.1571C33.9006 30.9065 34.4273 31.7711 33.8467 32.372Z" fill="#858585"/>
</svg>
