<svg width="14" height="13" viewBox="0 0 14 13" fill="none" xmlns="http://www.w3.org/2000/svg">
<path d="M1.73325 0C1.25659 0 0.823254 0.173333 0.476587 0.476667C0.173254 0.823333 -7.9155e-05 1.25667 -7.9155e-05 1.73333L0.0432539 5.46C0.0432539 5.98 0.25992 6.5 0.64992 6.89L6.15325 12.3933C6.54325 12.7833 7.06325 13 7.58325 13C8.05992 13 8.49325 12.8267 8.79659 12.5233L10.7949 10.525C10.9633 10.3566 10.9752 10.0874 10.8222 9.90482C10.6489 9.69804 10.3357 9.68426 10.1449 9.87502L8.14659 11.8733C8.01659 12.0467 7.79992 12.1333 7.53992 12.1333C7.23659 12.1333 6.93325 12.0033 6.71659 11.7867L1.21325 6.28333C0.996588 6.06667 0.866588 5.76333 0.866588 5.46V1.73333C0.866588 1.47333 0.953255 1.25667 1.12659 1.12667C1.25659 0.953333 1.47325 0.866667 1.73325 0.866667H5.45992C5.76325 0.866667 6.06659 0.996667 6.28325 1.25667L10.4271 5.36786C10.59 5.52953 10.8509 5.53584 11.0214 5.38225C11.2057 5.21636 11.2132 4.92993 11.0379 4.75463L6.88992 0.606667C6.49992 0.216667 5.97992 0 5.45992 0H1.73325Z" fill="white"/>
<path d="M4.28998 2.25328C4.42389 2.38691 4.53012 2.54564 4.60261 2.72038C4.67509 2.89512 4.7124 3.08244 4.7124 3.27161C4.7124 3.46079 4.67509 3.64811 4.60261 3.82285C4.53012 3.99759 4.42389 4.15632 4.28998 4.28995C4.02998 4.54995 3.63998 4.72328 3.29332 4.72328C2.94665 4.72328 2.55665 4.59328 2.29665 4.28995C1.73332 3.72661 1.73332 2.81661 2.29665 2.25328C2.77332 1.73328 3.72665 1.73328 4.28998 2.25328ZM2.85998 3.68328C3.07665 3.89995 3.46665 3.89995 3.63998 3.68328C3.89998 3.46661 3.89998 3.07661 3.68332 2.85995C3.59665 2.77328 3.42332 2.68661 3.29332 2.68661C3.16332 2.68661 2.98998 2.72995 2.90332 2.85995C2.64332 3.07661 2.64332 3.46661 2.85998 3.68328Z" fill="white"/>
<path fill-rule="evenodd" clip-rule="evenodd" d="M12.502 6.30762C12.502 6.17501 12.4493 6.04783 12.3555 5.95406C12.2617 5.8603 12.1346 5.80762 12.002 5.80762C11.8693 5.80762 11.7422 5.8603 11.6484 5.95406C11.5546 6.04783 11.502 6.17501 11.502 6.30762V7.30762H10.502C10.3693 7.30762 10.2422 7.3603 10.1484 7.45406C10.0546 7.54783 10.002 7.67501 10.002 7.80762C10.002 7.94023 10.0546 8.0674 10.1484 8.16117C10.2422 8.25494 10.3693 8.30762 10.502 8.30762H11.502V9.30762C11.502 9.44023 11.5546 9.5674 11.6484 9.66117C11.7422 9.75494 11.8693 9.80762 12.002 9.80762C12.1346 9.80762 12.2617 9.75494 12.3555 9.66117C12.4493 9.5674 12.502 9.44023 12.502 9.30762V8.30762H13.502C13.6346 8.30762 13.7617 8.25494 13.8555 8.16117C13.9493 8.0674 14.002 7.94023 14.002 7.80762C14.002 7.67501 13.9493 7.54783 13.8555 7.45406C13.7617 7.3603 13.6346 7.30762 13.502 7.30762H12.502V6.30762Z" fill="white"/>
</svg>
