<svg width="38" height="37" viewBox="0 0 38 37" fill="none" xmlns="http://www.w3.org/2000/svg">
<path d="M35 15C35.0005 13.2718 34.328 11.6112 33.125 10.3704V8.125C33.125 7.95924 33.0592 7.80027 32.9419 7.68306C32.8247 7.56585 32.6658 7.5 32.5 7.5H32.1338L32.9419 6.69195C33.3906 6.24323 33.6427 5.63463 33.6427 5.00003C33.6427 4.36543 33.3906 3.75682 32.9419 3.30809C32.4932 2.85935 31.8846 2.60725 31.25 2.60724C30.6154 2.60724 30.0068 2.85932 29.558 3.30805L25.3661 7.5H24.375V5.625C24.375 5.48977 24.3311 5.35818 24.25 5.25L22.5 2.91664V0.625C22.5 0.45924 22.4342 0.300268 22.3169 0.183058C22.1997 0.065848 22.0408 0 21.875 0H13.75C13.5842 0 13.4253 0.065848 13.3081 0.183058C13.1908 0.300268 13.125 0.45924 13.125 0.625V2.91664L11.375 5.25L11.3755 5.25047C11.294 5.35832 11.25 5.48982 11.25 5.625V7.86492C10.8718 7.63778 10.4411 7.51264 10 7.50172V5C10 4.83424 9.93415 4.67527 9.81694 4.55806C9.69973 4.44085 9.54076 4.375 9.375 4.375H5.625C5.45924 4.375 5.30027 4.44085 5.18306 4.55806C5.06585 4.67527 5 4.83424 5 5V7.50172C4.33131 7.52002 3.6961 7.79829 3.2293 8.27742C2.76249 8.75655 2.50087 9.3988 2.5 10.0677V15C1.83696 15 1.20107 15.2634 0.732233 15.7322C0.263392 16.2011 0 16.837 0 17.5C0 18.163 0.263392 18.7989 0.732233 19.2678C1.20107 19.7366 1.83696 20 2.5 20H2.58875L4.62148 33.213C4.74783 34.0602 5.17525 34.8336 5.82543 35.3914C6.47561 35.9492 7.305 36.254 8.16164 36.25H29.3384C30.195 36.254 31.0244 35.9492 31.6746 35.3914C32.3248 34.8336 32.7522 34.0602 32.8785 33.2129L34.9113 20H35C35.663 20 36.2989 19.7366 36.7678 19.2678C37.2366 18.7989 37.5 18.163 37.5 17.5C37.5 16.837 37.2366 16.2011 36.7678 15.7322C36.2989 15.2634 35.663 15 35 15ZM28.3839 11.25H31.2059C30.4398 12.3521 30.0205 13.6579 30.002 15H24.6339L28.3839 11.25ZM32.5267 11.5768C33.3176 12.5423 33.7499 13.7519 33.75 15H31.2523C31.2729 13.7467 31.7228 12.5384 32.5267 11.5768ZM31.875 8.75V10H29.6338L30.8838 8.75H31.875ZM30.4419 4.19195C30.5477 4.08449 30.6737 3.99903 30.8127 3.9405C30.9517 3.88198 31.1009 3.85155 31.2518 3.85096C31.4026 3.85037 31.552 3.87965 31.6915 3.93709C31.8309 3.99453 31.9576 4.07901 32.0643 4.18565C32.1709 4.2923 32.2554 4.41899 32.3128 4.55844C32.3703 4.69789 32.3996 4.84733 32.399 4.99815C32.3984 5.14896 32.368 5.29817 32.3095 5.43718C32.251 5.57618 32.1655 5.70223 32.058 5.80805L19.558 18.308C19.4522 18.4155 19.3262 18.501 19.1872 18.5595C19.0482 18.618 18.899 18.6485 18.7482 18.649C18.5973 18.6496 18.4479 18.6204 18.3085 18.5629C18.169 18.5055 18.0423 18.421 17.9357 18.3143C17.829 18.2077 17.7445 18.081 17.6871 17.9416C17.6296 17.8021 17.6003 17.6527 17.6009 17.5019C17.6015 17.351 17.6319 17.2018 17.6904 17.0628C17.749 16.9238 17.8344 16.7978 17.9419 16.692L30.4419 4.19195ZM20.625 3.75L19.6875 5H13.125L14.0625 3.75H20.625ZM12.5 6.25H19.375V13.4911L17.8662 15H12.5V6.25ZM23.125 9.74109V8.75H24.1161L23.125 9.74109ZM23.125 7.5H22.5C22.3342 7.5 22.1753 7.56585 22.0581 7.68306C21.9408 7.80027 21.875 7.95924 21.875 8.125V10.625C21.8749 10.7272 21.9 10.8279 21.9481 10.918L20.625 12.2411V5.83336L21.875 4.16672L23.125 5.83336V7.5ZM21.25 1.25V2.5H14.375V1.25H21.25ZM8.75 5.625V7.5H6.25V5.625H8.75ZM3.75 13.75H10V12.5H3.75V10.0677C3.75037 9.71836 3.88932 9.38341 4.13637 9.13637C4.38341 8.88932 4.71836 8.75037 5.06773 8.75H9.93227C10.2816 8.75037 10.6166 8.88932 10.8636 9.13637C11.1107 9.38341 11.2496 9.71836 11.25 10.0677V15H3.75V13.75ZM1.25 17.5C1.25039 17.1686 1.38222 16.8509 1.61655 16.6166C1.85089 16.3822 2.1686 16.2504 2.5 16.25H16.7092C16.479 16.6263 16.3572 17.0589 16.3572 17.5C16.3572 17.9411 16.479 18.3737 16.7092 18.75H2.5C2.1686 18.7496 1.85089 18.6178 1.61655 18.3834C1.38222 18.1491 1.25039 17.8314 1.25 17.5ZM31.643 33.0228C31.5607 33.5744 31.2825 34.0779 30.8592 34.441C30.436 34.8042 29.896 35.0026 29.3384 35H8.16164C7.60396 35.0026 7.06401 34.8042 6.64073 34.4411C6.21745 34.078 5.9392 33.5745 5.85695 33.0229L3.85352 20H33.6465L31.643 33.0228ZM35 18.75H20.8839L23.3839 16.25H35C35.3315 16.25 35.6495 16.3817 35.8839 16.6161C36.1183 16.8505 36.25 17.1685 36.25 17.5C36.25 17.8315 36.1183 18.1495 35.8839 18.3839C35.6495 18.6183 35.3315 18.75 35 18.75Z" fill="#858585"/>
</svg>
