<svg width="23" height="36" viewBox="0 0 23 36" fill="none" xmlns="http://www.w3.org/2000/svg">
<path d="M22.846 10.6087L22.8014 26.9496L7.79068 35.6737L0.00292969 31.1704L0.0475164 14.8295L15.0583 6.10547L22.846 10.6087Z" fill="#AA6256"/>
<path d="M1.12402 14.8274L7.8365 18.7026L15.0565 16.1449V6.73047L1.12402 14.8274Z" fill="#BF7D5A"/>
<path d="M15.0566 6.73047V16.1456L21.7691 10.6065L15.0566 6.73047Z" fill="#AA6256"/>
<path d="M15.0559 6.10645L0.0458984 14.829L7.83736 19.3278L22.8474 10.6045L15.0559 6.10645ZM7.83885 18.6984L1.12415 14.8268L15.0574 6.7314L21.7654 10.6052L13.6433 15.3284L7.83885 18.6984Z" fill="#DBA660"/>
<path d="M17.502 5.82352C18.6581 4.22615 19.6585 2.52159 20.4892 0.733244C20.6215 0.449377 21.0436 0.634411 20.9336 0.921993C20.3585 2.41266 19.4675 4.28232 18.4472 6.30728L17.502 5.82352Z" fill="#5EC363"/>
<path d="M16.6172 5.70531C17.4614 2.42673 18.2639 0.803784 18.8309 0.0681096C18.9587 -0.0976031 19.2173 0.0681096 19.1215 0.255372C18.2349 1.98607 17.7749 3.83343 17.7898 5.78408L16.6172 5.70531Z" fill="#5EC363"/>
<path d="M16.3927 5.60481C16.3258 5.48591 16.95 1.31932 17.0801 1.18556C17.081 1.18431 17.082 1.18307 17.083 1.18184C17.2004 1.04511 17.4204 1.16698 17.3773 1.34161C17.0481 2.66434 17.0132 4.04651 17.2919 5.48368L16.3927 5.60481Z" fill="#78E75A"/>
<path d="M16.9521 5.69723C17.7299 4.32163 18.4474 2.91286 19.1027 1.4749C19.2461 1.15685 19.7195 1.35006 19.6088 1.67554C19.1146 3.12831 18.6316 4.55879 18.1508 5.9588L16.9521 5.69723Z" fill="#72D561"/>
<path d="M17.4805 5.96219C18.6211 5.55943 20.49 3.52183 21.147 1.97246C21.2339 1.76662 21.5349 1.90706 21.4539 2.1025C20.9114 3.40888 19.9015 4.85942 18.7393 6.39394L17.4805 5.96219Z" fill="#78E75A"/>
<path d="M18.208 6.40937C19.6846 5.29322 21.034 4.18302 21.5929 3.1122C21.6523 2.99702 21.818 3.0914 21.7615 3.19915C21.1269 4.40595 20.1118 5.57337 18.8538 6.71552L18.208 6.40937Z" fill="#72D561"/>
<path d="M14.6458 5.9468C15.1488 5.26463 15.8979 5.04467 16.8193 5.15168C17.5119 5.23119 18.1852 5.48905 18.7158 5.9416C19.5703 6.66984 19.924 7.71019 19.5882 9.17857C19.5577 9.31233 19.5161 9.44609 19.4685 9.57613C19.2352 10.2137 18.9134 10.9397 18.2387 12.015L16.9472 14.2436C16.4641 15.0461 16.0369 15.8338 15.7478 16.5858C15.3584 17.4627 14.7045 18.5031 13.9071 19.6296L12.0843 22.1636C11.2416 23.3333 10.4227 24.442 9.77841 25.1078C9.69147 25.197 9.60007 25.2817 9.50347 25.3597C8.94168 25.8108 8.5835 25.8873 8.45866 25.5343C8.17628 25.0662 8.43414 23.0821 8.8852 20.5615C9.25437 18.916 9.73706 17.2981 10.3298 15.7194C10.8158 14.17 11.4043 12.8428 12.036 11.6085C12.1013 11.4806 12.1594 11.3491 12.2099 11.2147C13.2071 8.5603 14.0773 6.52271 14.6458 5.94754V5.9468Z" fill="#F45170"/>
<path d="M8.4587 25.5351C8.20233 25.1093 8.39108 23.4351 8.7656 21.2444L8.80499 21.0148C8.831 20.8661 8.85701 20.7145 8.88524 20.5615C8.99448 20.0666 9.11561 19.5731 9.24862 19.0812C9.24862 19.0775 9.25011 19.0745 9.2516 19.0708C9.55757 17.9373 9.91714 16.8189 10.3291 15.7194C10.6787 14.6086 11.1066 13.5239 11.6095 12.4735C11.7492 12.1792 11.8919 11.8916 12.036 11.6085C12.1007 11.4807 12.1601 11.3492 12.2099 11.2147C13.2071 8.5603 14.0781 6.52271 14.6458 5.9468C15.1489 5.26463 15.8972 5.04467 16.8194 5.15168C17.512 5.23119 18.1852 5.48905 18.7158 5.9416C19.5704 6.67059 19.9241 7.71019 19.5882 9.17857C19.557 9.31233 19.5161 9.44609 19.4693 9.57613C19.381 9.8172 19.2843 10.0551 19.1795 10.2895C18.9662 10.7651 18.6772 11.3157 18.2387 12.015L16.9472 14.2443C16.7711 14.5361 16.6009 14.8315 16.4367 15.1301C16.1751 15.5997 15.9448 16.086 15.7471 16.5858C15.3584 17.4627 14.7052 18.5031 13.9072 19.6296L12.4529 21.6509L12.3191 21.8366L12.0836 22.1636C11.5188 22.9483 10.9652 23.7048 10.4666 24.3194L10.3492 24.4635C10.1478 24.7065 9.95606 24.9242 9.77846 25.1078C9.69226 25.1977 9.60011 25.2817 9.50351 25.3597C8.94172 25.8108 8.5828 25.8873 8.45944 25.5343L8.4587 25.5351Z" fill="#F45170"/>
<path d="M17.3033 6.30898C17.3033 6.30898 18.6319 6.25324 19.3854 7.58712C18.755 7.06519 18.054 6.6349 17.3033 6.30898ZM15.0368 6.23838C15.0368 6.23838 16.248 6.0749 17.0506 7.23414C16.4296 6.80904 15.7516 6.47381 15.0368 6.23838ZM19.1789 10.2898C18.7984 9.97769 18.3949 9.71017 17.9758 9.47535C18.004 9.47684 18.6891 9.52365 19.2658 10.0906L19.1789 10.2898ZM15.0598 9.90338C15.0598 9.90338 16.2696 9.72578 17.0855 10.8739C16.4594 10.4566 15.7774 10.1299 15.0598 9.90338ZM13.8159 7.816C13.8159 7.816 14.9781 7.43701 15.9761 8.43129C15.2886 8.1255 14.5613 7.91836 13.8159 7.816ZM12.8944 10.6524C12.8944 10.6524 14.0566 10.4793 14.8436 11.5813C14.2411 11.1815 13.5851 10.8688 12.8952 10.6524H12.8944ZM13.7765 12.7123C13.7765 12.7123 14.9387 12.5392 15.7256 13.6412C15.1229 13.2413 14.4667 12.9286 13.7765 12.7123ZM16.436 15.1296C16.0489 14.933 15.6463 14.7685 15.2322 14.6377C15.2322 14.6377 15.8795 14.5411 16.5349 14.9498L16.436 15.1296ZM12.6455 13.2808C12.2891 13.0425 11.9123 12.8361 11.5197 12.664L11.6088 12.473C11.9477 12.5971 12.3274 12.8349 12.6455 13.2808ZM11.426 14.4088C11.426 14.4088 12.5674 14.1317 13.4503 15.1586C12.7933 14.8004 12.1164 14.5634 11.426 14.4088ZM13.0289 15.6416C13.0289 15.6416 14.1978 15.525 14.9313 16.6634C14.3293 16.2176 13.6918 15.8906 13.0289 15.6416ZM10.0765 16.3647C10.0765 16.3647 11.3012 15.9894 12.3274 17.0506C11.6129 16.7171 10.8556 16.4861 10.0765 16.3647ZM11.3658 18.7671C11.3658 18.7671 12.618 18.4996 13.5491 19.6462C12.8664 19.2519 12.1314 18.9559 11.3658 18.7671ZM9.22495 19.0748C9.22495 19.0748 10.4778 18.8073 11.4082 19.9531C10.7254 19.559 9.99042 19.2633 9.22495 19.0748ZM12.3192 21.8362C11.8953 21.6554 11.4578 21.5085 11.0106 21.397C11.0106 21.397 11.7106 21.2476 12.4523 21.6504L12.3192 21.8362ZM9.9792 21.8191C9.59128 21.5937 9.1851 21.4013 8.76497 21.2439L8.80435 21.0143C9.17962 21.1273 9.60468 21.3598 9.97846 21.8198L9.9792 21.8191ZM10.3485 24.4631C9.83873 24.2226 9.3066 24.0327 8.75977 23.8961C8.75977 23.8961 9.63514 23.7095 10.4659 24.3189L10.3485 24.4631Z" fill="#E93565"/>
<path d="M6.34686 9.05572C7.19401 9.7208 7.8955 10.5122 8.5093 11.392C10.0049 13.5262 11.0167 15.961 11.4743 18.5266C11.6653 19.593 11.7329 20.6667 11.5962 21.7428C11.5278 22.3016 11.397 22.8441 11.1555 23.3464C10.9229 23.8383 10.5982 24.256 10.1204 24.5227C9.93978 24.6193 9.75623 24.6892 9.566 24.7271C9.21694 24.8003 8.85521 24.786 8.51302 24.6855C7.90367 24.525 7.3939 24.1683 6.89602 23.7878C6.22722 23.2751 5.24558 22.0118 5.24558 22.0118C4.00311 20.4676 2.11339 16.5172 1.69502 13.8599C1.52634 12.931 1.4275 11.9992 1.48918 11.0562C1.57092 9.78173 2.01901 8.44488 3.25777 8.0934C3.67168 7.96781 4.08113 7.98193 4.49133 8.08894C4.50916 8.08671 4.52848 8.09414 4.54335 8.09785C5.21957 8.27917 5.80291 8.62843 6.34686 9.05572Z" fill="#FEBC1F"/>
<path d="M6.34662 9.05606C7.19376 9.72114 7.89525 10.5125 8.50905 11.3924C10.0046 13.5266 11.0165 15.9614 11.474 18.5269C11.665 19.5933 11.7326 20.6671 11.5959 21.7431C11.5276 22.3019 11.3968 22.8444 11.1553 23.3467C10.9227 23.8387 10.5979 24.2563 10.1201 24.5231C9.93953 24.6197 9.75599 24.6895 9.56575 24.7274C9.56055 24.7237 9.55609 24.7289 9.55089 24.7244C8.93634 24.5595 8.43177 24.2072 7.93389 23.8268C7.25989 23.3103 6.28345 22.0508 6.28345 22.0508C5.03578 20.5021 3.14755 16.5614 2.73289 13.8989C2.55529 12.97 2.45646 12.0389 2.52259 11.0907C2.61623 9.80065 3.05614 8.49724 4.29119 8.12792C4.35361 8.11306 4.41751 8.09671 4.49034 8.08928C4.50892 8.08705 4.52824 8.09448 4.54236 8.09819C5.21933 8.27951 5.80266 8.62877 6.34662 9.05606Z" fill="#FFD06C"/>
<path d="M4.22992 20.4658L6.89693 19.3497C6.98483 19.3106 7.07964 19.2896 7.17579 19.2876C7.27195 19.2857 7.36752 19.3031 7.45689 19.3386C7.54626 19.3741 7.62764 19.4271 7.69625 19.4945C7.76486 19.5619 7.81932 19.6423 7.85644 19.7311C7.89355 19.8198 7.91257 19.915 7.91238 20.0112C7.91219 20.1074 7.8928 20.2026 7.85534 20.2911C7.81788 20.3797 7.7631 20.4599 7.69423 20.5271C7.62536 20.5942 7.54377 20.6469 7.45426 20.6821L5.01539 21.7023C4.73107 21.3049 4.46885 20.8921 4.22992 20.4658ZM2.67534 17.2021L5.50361 16.0191C5.5915 15.98 5.68631 15.959 5.78247 15.957C5.87863 15.9551 5.97419 15.9725 6.06357 16.008C6.15294 16.0435 6.23432 16.0965 6.30293 16.1639C6.37154 16.2313 6.426 16.3117 6.46311 16.4005C6.50023 16.4892 6.51925 16.5844 6.51906 16.6806C6.51887 16.7768 6.49948 16.872 6.46201 16.9605C6.42455 17.0491 6.36978 17.1293 6.30091 17.1965C6.23203 17.2636 6.15045 17.3163 6.06094 17.3515L3.24085 18.5308C3.04164 18.0925 2.85309 17.6495 2.67534 17.2021ZM1.66992 13.7125L4.11177 12.6907C4.19925 12.6541 4.29309 12.6351 4.38792 12.6348C4.48275 12.6344 4.57672 12.6528 4.66446 12.6888C4.7522 12.7248 4.83199 12.7777 4.89928 12.8445C4.96656 12.9113 5.02003 12.9907 5.05663 13.0782C5.09322 13.1657 5.11223 13.2596 5.11256 13.3544C5.11289 13.4492 5.09454 13.5432 5.05855 13.6309C5.02256 13.7187 4.96965 13.7984 4.90283 13.8657C4.836 13.933 4.75658 13.9865 4.6691 14.0231L1.98277 15.1467C1.86208 14.7234 1.76655 14.2934 1.69667 13.8589C1.68776 13.8091 1.67735 13.76 1.66992 13.7125Z" fill="#F9A83D"/>
<path d="M14.6561 14.2804V20.6547C14.6583 21.1942 14.3083 21.7337 13.6009 22.1461C12.1801 22.971 9.86973 22.971 8.44 22.1461C7.72959 21.7374 7.36993 21.1942 7.36621 20.6547V14.2804C7.36621 13.515 7.76006 12.8016 8.40581 12.3914H8.40879C8.72673 12.1885 8.98852 11.9088 9.17006 11.5782C9.3516 11.2476 9.44706 10.8766 9.44765 10.4994V7.0752H12.5776V10.5031C12.5777 10.8799 12.673 11.2505 12.8546 11.5806C13.0362 11.9107 13.2983 12.1896 13.6165 12.3914C13.942 12.5965 14.1991 12.8759 14.3796 13.2014C14.5558 13.5268 14.6561 13.8991 14.6561 14.2804Z" fill="#57B3FE"/>
<path d="M12.7245 7.39029V8.55697C12.7245 8.80963 12.5536 9.06228 12.2267 9.25549C11.5579 9.6419 10.4804 9.63447 9.80414 9.24806C9.46974 9.05485 9.29883 8.80219 9.29883 8.54211V7.37543C9.29883 7.13021 9.46231 6.87755 9.79671 6.68434C10.4655 6.29793 11.5504 6.29793 12.2192 6.68434C12.5536 6.87755 12.7245 7.13764 12.7245 7.39029Z" fill="#F3F1FC"/>
<path d="M12.7243 7.39056V8.5565C12.7228 8.80841 12.5571 9.05958 12.2264 9.25204C11.5606 9.63846 10.4786 9.63846 9.8061 9.24981C9.46873 9.05512 9.30004 8.79949 9.30078 8.54386V7.37793C9.30004 7.63356 9.46873 7.88993 9.8061 8.08388C10.4786 8.47253 11.5598 8.47401 12.2264 8.08685C12.5571 7.89439 12.7228 7.64322 12.7243 7.39056Z" fill="#DEDFFB"/>
<path d="M12.2161 6.68364C12.8886 7.07155 12.8923 7.69947 12.2257 8.08663C11.5599 8.47304 10.4779 8.47304 9.80542 8.0844C9.13662 7.69798 9.12919 7.0708 9.79576 6.68364C10.4623 6.29649 11.5473 6.29723 12.2161 6.68364Z" fill="#F3F1FC"/>
<path d="M11.9203 6.8557C12.4264 7.14849 12.4293 7.6211 11.9277 7.91314C11.4261 8.20518 10.6102 8.2037 10.1034 7.91166C9.59959 7.62036 9.59439 7.14774 10.096 6.85645C10.5983 6.56441 11.4165 6.56515 11.9203 6.85645V6.8557Z" fill="#E9E7FC"/>
<path d="M14.0323 14.3094V20.6555C14.0397 20.9899 13.7648 21.3317 13.2892 21.6067C12.7021 21.9485 11.8773 22.1417 11.0227 22.1417C10.1681 22.1417 9.34328 21.9485 8.7488 21.6067C8.26578 21.3317 7.99083 20.9825 7.9834 20.6555V14.3094C7.9834 13.8635 8.27321 13.4102 8.86769 13.0684C10.0418 12.3847 11.959 12.3847 13.1406 13.0684C13.735 13.4102 14.0323 13.8561 14.0323 14.3094Z" fill="#DEDFFB"/>
<path d="M14.0345 14.3106V20.6537C14.0374 20.9859 13.7647 21.3329 13.2899 21.6094C12.7036 21.9505 11.8787 22.1422 11.0256 22.1422C10.1696 22.1422 9.34175 21.9475 8.7495 21.6094C8.26871 21.33 7.9893 20.9792 7.98633 20.6508V14.3076C7.9893 14.7542 8.28729 15.2045 8.87657 15.5456C10.0641 16.2308 11.9783 16.2278 13.1569 15.5456C13.7432 15.2038 14.0337 14.7579 14.0337 14.3106H14.0345Z" fill="#DEDFFB"/>
<path d="M14.0345 14.3084V14.3114C14.0345 14.7587 13.7432 15.2053 13.1569 15.5464C11.9783 16.2286 10.0641 16.2316 8.87657 15.5464C8.28729 15.2046 7.9893 14.755 7.98633 14.3084C7.98633 13.8626 8.27763 13.4122 8.86691 13.0674C10.0425 12.3853 11.9597 12.3823 13.1413 13.0674C13.7365 13.4122 14.0345 13.8588 14.0345 14.3084Z" fill="#F3F1FC"/>
<path d="M22.8471 10.6045L22.801 26.9476L7.79102 35.6702L7.83709 19.3278L22.8471 10.6045Z" fill="#BF7D5A"/>
<path d="M9.32083 20.185L21.3539 13.1924L21.3175 26.0912L9.28516 33.0838L9.32083 20.185Z" fill="#AA6256"/>
<path d="M19.9339 11.6697L13.6435 15.328L7.83909 18.6995L1.12438 14.8264L0.046875 14.8294L7.8376 19.3281L21.0151 11.6689L19.9339 11.6697Z" fill="#DBA660"/>
<path d="M7.83754 19.3279L7.79147 35.6703L0 31.1715L0.0460728 14.8291L7.83754 19.3279Z" fill="#AA6256"/>
</svg>
