<svg width="40" height="34" viewBox="0 0 40 34" fill="none" xmlns="http://www.w3.org/2000/svg">
<path d="M38.7712 1.79633C37.863 1.54086 36.899 2.10711 36.6779 3.02219L36.6003 3.34336C33.8916 2.2168 31.0445 1.35883 28.1262 0.791563C28.0506 0.776856 27.9727 0.777199 27.8972 0.792572C27.8216 0.807946 27.7499 0.838049 27.6859 0.881163C27.622 0.924277 27.5672 0.979557 27.5247 1.04385C27.4821 1.10814 27.4527 1.18018 27.438 1.25586C27.4233 1.33154 27.4236 1.40937 27.439 1.48492C27.4543 1.56047 27.4845 1.63225 27.5276 1.69616C27.5707 1.76007 27.626 1.81487 27.6903 1.85742C27.7545 1.89996 27.8266 1.92943 27.9023 1.94414C30.8045 2.50836 33.6341 3.36758 36.3211 4.49922L33.8184 14.8592C30.9862 13.8435 26.7262 12.3398 20.0002 12.3398C13.2743 12.3398 9.01422 13.8435 6.18211 14.8593L3.67937 4.49898C8.84586 2.32281 14.4777 1.17414 20.0002 1.17414C21.8621 1.17414 23.7577 1.30617 25.6341 1.56648C25.7873 1.58568 25.9419 1.54378 26.0644 1.44986C26.1869 1.35593 26.2675 1.21754 26.2887 1.06464C26.3099 0.911743 26.2701 0.756636 26.1778 0.632901C26.0855 0.509166 25.9482 0.426758 25.7955 0.403516C23.8658 0.135781 21.9159 0 20.0002 0C14.3853 0 8.66156 1.15492 3.40023 3.34352L3.32266 3.02227C3.10164 2.10727 2.1375 1.54078 1.22938 1.79641C0.809016 1.91318 0.450631 2.18901 0.230149 2.56548C0.00966634 2.94194 -0.0555906 3.38945 0.0482033 3.8132L4.84094 23.653C4.87881 23.8029 4.97431 23.9319 5.10671 24.0118C5.23911 24.0918 5.3977 24.1162 5.54803 24.0799C5.69837 24.0436 5.8283 23.9494 5.90961 23.8179C5.99091 23.6863 6.01702 23.528 5.98227 23.3773L1.18953 3.5375C1.15811 3.40915 1.17788 3.2736 1.24465 3.15957C1.31142 3.04554 1.41995 2.96197 1.54727 2.92656C1.82227 2.84922 2.11438 3.02078 2.18133 3.29789L8.99086 31.4864C9.02228 31.6148 9.00252 31.7503 8.93574 31.8643C8.86897 31.9784 8.76044 32.0619 8.63313 32.0973C8.3582 32.1747 8.06609 32.0032 7.99906 31.726L6.5343 25.6624C6.49662 25.5123 6.40116 25.383 6.26868 25.3029C6.1362 25.2228 5.97743 25.1982 5.82694 25.2346C5.67644 25.271 5.5464 25.3653 5.46513 25.4971C5.38385 25.6289 5.35792 25.7874 5.39297 25.9382L6.85773 32.0018C7.07875 32.9167 8.04266 33.4832 8.95102 33.2277C9.37138 33.1109 9.72976 32.835 9.95023 32.4585C10.1707 32.0821 10.2359 31.6345 10.1321 31.2108L6.45938 16.0071L6.49039 15.996C9.24547 15.0077 13.4091 13.514 20.0002 13.514C26.5914 13.514 30.7549 15.0077 33.5101 15.996L33.5411 16.0071L29.8684 31.2107C29.7645 31.6345 29.8298 32.082 30.0502 32.4585C30.2707 32.8349 30.6291 33.1108 31.0495 33.2276C31.9577 33.4831 32.9217 32.9167 33.1427 32.0017L35.6565 21.5958C35.6912 21.4451 35.6651 21.2867 35.5838 21.1552C35.5025 21.0236 35.3726 20.9295 35.2223 20.8931C35.0719 20.8568 34.9133 20.8813 34.7809 20.9612C34.6485 21.0412 34.553 21.1701 34.5152 21.3201L32.0013 31.726C31.9344 32.0031 31.6422 32.1748 31.3673 32.0973C31.24 32.0619 31.1314 31.9784 31.0646 31.8643C30.9979 31.7503 30.9781 31.6148 31.0095 31.4864L37.8191 3.29789C37.8861 3.02078 38.1781 2.84914 38.4531 2.92656C38.5804 2.96197 38.689 3.04554 38.7557 3.15957C38.8225 3.2736 38.8423 3.40915 38.8109 3.5375L35.0677 19.0327C35.0329 19.1834 35.059 19.3418 35.1403 19.4733C35.2216 19.6049 35.3516 19.6991 35.5019 19.7354C35.6522 19.7717 35.8108 19.7472 35.9432 19.6673C36.0756 19.5873 36.1711 19.4584 36.209 19.3084L39.9522 3.8132C40.056 3.38946 39.9908 2.94195 39.7703 2.56547C39.5499 2.18899 39.1915 1.91313 38.7712 1.79633Z" fill="#858585"/>
<path d="M10.4986 5.65355C10.6474 5.61274 10.7742 5.51495 10.8515 5.38137C10.9288 5.24778 10.9503 5.08914 10.9115 4.93976C10.8727 4.79038 10.7767 4.66229 10.6442 4.5832C10.5116 4.50411 10.3533 4.48038 10.2034 4.51715L7.9595 5.09996C7.88488 5.11934 7.81481 5.15322 7.75329 5.19968C7.69177 5.24614 7.64 5.30427 7.60094 5.37073C7.56188 5.4372 7.53629 5.51071 7.52565 5.58706C7.515 5.66342 7.51949 5.74112 7.53888 5.81574L8.98974 11.4021C9.06958 11.7132 9.39458 11.9069 9.7063 11.826L11.9502 11.2432C12.099 11.2023 12.2258 11.1046 12.3031 10.971C12.3804 10.8374 12.402 10.6787 12.3632 10.5294C12.3244 10.38 12.2283 10.2519 12.0958 10.1728C11.9633 10.0937 11.8049 10.07 11.655 10.1068L9.97935 10.542L9.54864 8.88363L11.2243 8.44848C11.299 8.4291 11.369 8.39521 11.4306 8.34875C11.4921 8.30229 11.5438 8.24417 11.5829 8.1777C11.622 8.11123 11.6475 8.03773 11.6582 7.96137C11.6688 7.88502 11.6644 7.80731 11.645 7.7327C11.6256 7.65808 11.5917 7.58801 11.5452 7.52649C11.4988 7.46497 11.4407 7.4132 11.3742 7.37414C11.3077 7.33508 11.2342 7.3095 11.1579 7.29885C11.0815 7.2882 11.0038 7.29269 10.9292 7.31207L9.25349 7.74723L8.82278 6.08895L10.4986 5.65355ZM21.2133 4.44848C21.3689 4.44848 21.5183 4.38663 21.6283 4.27654C21.7384 4.16645 21.8003 4.01714 21.8003 3.86145C21.8003 3.70575 21.7384 3.55644 21.6283 3.44635C21.5183 3.33626 21.3689 3.27441 21.2133 3.27441H18.8949C18.7392 3.27441 18.5899 3.33626 18.4798 3.44635C18.3697 3.55644 18.3079 3.70575 18.3079 3.86145V9.63316L18.3079 9.63481L18.3079 9.63645C18.3079 9.71354 18.323 9.78987 18.3525 9.86109C18.382 9.93232 18.4253 9.99703 18.4798 10.0515C18.5343 10.1061 18.599 10.1493 18.6702 10.1788C18.7415 10.2083 18.8178 10.2235 18.8949 10.2235H21.2133C21.3689 10.2235 21.5183 10.1616 21.6283 10.0515C21.7384 9.94145 21.8003 9.79214 21.8003 9.63645C21.8003 9.48076 21.7384 9.33144 21.6283 9.22135C21.5183 9.11126 21.3689 9.04941 21.2133 9.04941H19.482V7.33605H21.2133C21.3678 7.33427 21.5154 7.27164 21.624 7.16173C21.7327 7.05183 21.7936 6.90352 21.7936 6.74898C21.7936 6.59445 21.7327 6.44614 21.624 6.33624C21.5154 6.22633 21.3678 6.1637 21.2133 6.16191H19.482V4.44848H21.2133ZM15.3641 10.4914C15.8985 10.4914 16.3558 10.091 16.42 9.55965L17.0964 3.96324C17.1056 3.8867 17.0997 3.80908 17.079 3.73483C17.0582 3.66057 17.0231 3.59112 16.9755 3.53046C16.9279 3.4698 16.8688 3.4191 16.8017 3.38126C16.7345 3.34343 16.6605 3.3192 16.584 3.30996C16.2617 3.27059 15.9696 3.50043 15.9307 3.8223L15.3043 9.00605L13.1597 4.24535C13.0958 4.10339 12.9781 3.99264 12.8325 3.93748C12.6868 3.88232 12.5253 3.88726 12.3833 3.95121C12.2414 4.01516 12.1306 4.13289 12.0755 4.2785C12.0203 4.4241 12.0252 4.58565 12.0892 4.72762L14.4045 9.86731C14.579 10.2546 14.9519 10.4914 15.3641 10.4914ZM24.1221 3.42473C23.9935 3.44259 23.8745 3.50255 23.7836 3.59523C23.6927 3.68792 23.6351 3.8081 23.6198 3.93699L22.9393 9.66848C22.9209 9.82309 22.9647 9.97865 23.0611 10.101C23.1574 10.2233 23.2984 10.3023 23.453 10.3207C23.7746 10.3592 24.067 10.1289 24.1052 9.80692L24.5214 6.30223L26.2033 10.3489C26.3077 10.6001 26.5802 10.7491 26.848 10.7017C27.0998 10.6571 27.2983 10.4468 27.3284 10.1929L28.0093 4.45816C28.0277 4.30355 27.9839 4.14799 27.8875 4.02568C27.7912 3.90337 27.6502 3.82435 27.4956 3.80598C27.1736 3.76746 26.8816 3.9977 26.8434 4.31973L26.4269 7.82762L24.7448 3.7809C24.695 3.66103 24.6069 3.56106 24.4942 3.49662C24.3815 3.43217 24.2507 3.40689 24.1221 3.42473ZM29.7342 11.4976C30.046 11.5694 30.3662 11.3689 30.438 11.0573L31.6017 6.00488L32.8456 6.29137C33.162 6.36418 33.4846 6.15723 33.5518 5.84004C33.6171 5.53121 33.4165 5.21801 33.1091 5.14723L29.4771 4.31066C29.3254 4.27572 29.166 4.30248 29.034 4.38505C28.902 4.46763 28.8082 4.59925 28.7733 4.75098C28.7383 4.9027 28.7651 5.06209 28.8476 5.19408C28.9302 5.32608 29.0618 5.41986 29.2136 5.4548L30.4575 5.74129L29.2938 10.7936C29.2588 10.9454 29.2856 11.1048 29.3682 11.2368C29.4508 11.3689 29.5824 11.4627 29.7342 11.4976Z" fill="#858585"/>
</svg>
