<svg width="29" height="29" viewBox="0 0 29 29" fill="none" xmlns="http://www.w3.org/2000/svg">
<path d="M28.9821 12.5509C28.9821 12.9132 28.7346 13.3418 28.4206 13.523L2.83267 28.2973C2.66966 28.3939 2.52475 28.3999 2.42815 28.3335C2.41607 28.3275 2.41003 28.3215 2.404 28.3154L0.188146 27.0354C0.0975803 26.975 0.0311652 26.8482 0.0311652 26.6732L0.000976562 16.9222C0.000976562 16.566 0.248524 16.1373 0.562486 15.9501L1.81834 15.2316C2.084 15.0807 2.30135 14.7305 2.36173 14.4105C2.92928 11.126 7.62664 6.10863 13.3444 2.80598C17.8063 0.233909 21.6583 -0.593261 23.4153 0.421079L25.4259 1.5924L25.4138 1.60448C25.45 1.62259 25.4923 1.6407 25.5285 1.65881C25.5104 1.64674 25.4923 1.6407 25.4742 1.62863L25.4259 1.5924L26.1504 1.1758C26.3074 1.09127 26.4523 1.08523 26.5549 1.13957L28.7285 2.40749H28.7104C28.8553 2.44372 28.9519 2.58259 28.9519 2.80598L28.9821 12.5509Z" fill="#678AEE"/>
<path d="M25.5288 1.65919C25.4926 1.64108 25.4503 1.62296 25.4141 1.60485L25.4261 1.59277L25.4744 1.629C25.4926 1.64108 25.5107 1.64711 25.5288 1.65919Z" fill="#678AEE"/>
<path d="M25.5278 1.65821C25.4916 1.6401 25.4493 1.62199 25.4131 1.60387L25.4252 1.5918L25.4735 1.62802C25.4916 1.6401 25.5097 1.64614 25.5278 1.65821Z" fill="#678AEE"/>
<path d="M25.4735 1.62864C25.452 1.6243 25.4316 1.61612 25.4131 1.60449C25.4493 1.62261 25.4916 1.64072 25.5278 1.65883C25.5097 1.64676 25.4916 1.64072 25.4735 1.62864Z" fill="#678AEE"/>
<path d="M28.7307 2.40951C28.6353 2.38596 28.5164 2.40951 28.389 2.48136L27.1343 3.20408C26.9834 3.29163 26.8481 3.29947 26.7449 3.24393L24.5049 1.94098C24.6081 1.99653 24.7434 1.98929 24.8943 1.90113L26.149 1.17842C26.3078 1.09147 26.4508 1.08302 26.5541 1.13857L28.7307 2.40951Z" fill="#748BFD"/>
<path d="M25.6489 1.72646C23.901 0.709707 20.0489 1.53567 15.5846 4.10956C9.86566 7.40616 5.17132 12.4175 4.59955 15.7062C4.5434 16.0323 4.32181 16.3819 4.05917 16.5322L2.80392 17.2561C2.48634 17.4385 2.24 17.8677 2.24 18.2252L2.272 27.9791C2.272 28.1542 2.3354 28.281 2.43079 28.3366L0.190792 27.0336C0.0953962 26.9781 0.032 26.8513 0.032 26.6762L0 16.9222C0 16.5648 0.24634 16.1361 0.563925 15.9532L1.81977 15.2305C2.08121 15.0795 2.304 14.7299 2.35955 14.4123C2.93132 11.1236 7.62566 6.11167 13.3446 2.80782C17.8089 0.233933 21.661 -0.592029 23.4168 0.424726L25.6489 1.72646Z" fill="#678AEE"/>
<path d="M15.5826 4.10918C21.2925 0.812581 26.0103 0.388128 26.5918 3.01152C26.6485 3.27115 26.8725 3.35749 27.1358 3.20533L28.3886 2.48201C28.7032 2.30088 28.9525 2.44277 28.9537 2.80383L28.9809 12.5536C28.9821 12.9146 28.7346 13.3439 28.42 13.5256L2.83449 28.2964C2.52053 28.4775 2.27117 28.3356 2.26996 27.9745L2.24219 18.2254C2.24158 17.8638 2.48913 17.4345 2.8037 17.2533L4.05592 16.53C4.31977 16.3779 4.54257 16.0337 4.59751 15.7101C5.16687 12.4213 9.86664 7.4082 15.5826 4.10858V4.10918Z" fill="#8FABFE"/>
<path d="M3.03711 18.2232C3.03711 18.1466 3.13371 17.9799 3.20013 17.9413L4.45356 17.2186C4.92028 16.9481 5.28435 16.4089 5.38035 15.8438C5.91168 12.7748 10.5674 7.92166 15.9796 4.79713C18.9502 3.0812 21.777 2.09766 23.7351 2.09766C24.9565 2.09766 25.6569 2.46294 25.8169 3.18324C25.9334 3.71517 26.3645 4.07441 26.8904 4.07441C27.1084 4.07441 27.3251 4.01403 27.5328 3.89328L28.1619 3.53101L28.1873 12.5556C28.1873 12.6323 28.0907 12.7983 28.0243 12.837L3.06186 27.2485L3.03711 18.2232Z" fill="#4C5C75"/>
<path d="M22.8834 6.16323L23.3363 7.47946L22.171 7.17757L21.0117 8.81984L20.4563 8.49984L20.8487 6.83946L20.2812 6.68852L19.7257 6.36248L21.1627 5.53531L21.6034 3.71191L22.1589 4.03795L22.4246 4.80474L23.4872 4.19493L24.0427 4.51493L22.8834 6.16323ZM19.0796 7.10512L17.2623 9.68324L17.9627 11.7481L16.1393 11.2772L14.3159 13.8553L13.7604 13.5293L14.4004 10.8364L13.1687 10.5164L12.6193 10.1904L14.8774 8.88625L15.5657 6.02437L16.1212 6.34437L16.6344 7.87191L18.5242 6.77908L19.0796 7.10512ZM11.9793 11.4825L10.814 13.1308L11.2668 14.447L10.0955 14.1451L8.94229 15.7874L8.38682 15.4674L8.77323 13.807L8.21172 13.6561L7.65625 13.3361L9.09927 12.5029L9.53399 10.6855L10.0895 11.0055L10.3491 11.7783L11.4238 11.1564L11.9793 11.4825Z" fill="#F9A83D"/>
<path d="M16.8189 8.40842L16.2646 8.08661L18.5246 6.78125L19.0794 7.10367L16.8189 8.40842Z" fill="#FEBC1F"/>
<path d="M14.3185 13.8539L13.7637 13.5315L14.4453 10.6696L14.9996 10.9914L14.3185 13.8539ZM15.4325 9.20969L14.8776 8.88728L15.569 6.02539L16.1238 6.34781L15.4325 9.20969Z" fill="#F9A83D"/>
<path d="M13.1721 10.5145L12.6172 10.1921L14.8777 8.88672L15.4326 9.20913L13.1721 10.5145Z" fill="#FEBC1F"/>
<path d="M16.1237 6.34766L16.8187 8.40894L19.0792 7.10418L17.26 9.68652L17.9652 11.7478L16.1376 11.2769L14.3184 13.8538L14.9995 10.9919L13.1719 10.5149L15.4324 9.20954L16.1237 6.34766Z" fill="#FFD06C"/>
<path d="M10.5357 12.3136L9.98145 11.9918L11.4233 11.1592L11.9775 11.4816L10.5357 12.3136Z" fill="#FEBC1F"/>
<path d="M8.94001 15.7905L8.38574 15.4681L8.81804 13.6405L9.37291 13.9623L8.94001 15.7905ZM9.65125 12.8248L9.09699 12.5024L9.53412 10.6826L10.089 11.005L9.65125 12.8248Z" fill="#F9A83D"/>
<path d="M8.20954 13.6564L7.65527 13.334L9.09708 12.502L9.65135 12.8244L8.20954 13.6564Z" fill="#FEBC1F"/>
<path d="M10.0895 11.0039L10.5363 12.3129L11.9775 11.4809L10.8152 13.1292L11.2663 14.4466L10.0986 14.1441L8.94053 15.7894L9.37343 13.9612L8.20996 13.6557L9.65177 12.8237L10.0895 11.0039Z" fill="#FFD06C"/>
<path d="M22.606 5.34536L22.0518 5.02294L23.4887 4.19336L24.043 4.51577L22.606 5.34536Z" fill="#FEBC1F"/>
<path d="M21.0109 8.82082L20.4561 8.4984L20.889 6.67017L21.4432 6.99259L21.0109 8.82082ZM21.7167 5.85749L21.1625 5.53508L21.605 3.71289L22.1593 4.03531L21.7167 5.85749Z" fill="#F9A83D"/>
<path d="M20.2805 6.68716L19.7256 6.36474L21.1626 5.53516L21.7168 5.85757L20.2805 6.68716Z" fill="#FEBC1F"/>
<path d="M22.1592 4.03516L22.606 5.34414L24.0424 4.51455L22.885 6.15984L23.3366 7.47787L22.1683 7.17478L21.0108 8.82006L21.4431 6.99244L20.2803 6.68693L21.7166 5.85734L22.1592 4.03516Z" fill="#FFD06C"/>
<path d="M5.53707 23.7388C5.66386 23.8113 5.73631 23.9682 5.74235 24.1856C5.74235 24.6324 5.42839 25.1818 5.03594 25.4052C4.82461 25.526 4.63141 25.526 4.50461 25.4233C4.51065 25.4415 4.52273 25.4475 4.5348 25.4535L4.06386 25.1758C3.93103 25.1033 3.85254 24.9464 3.85254 24.723C3.85254 24.2822 4.17254 23.7328 4.55292 23.5154C4.74612 23.3947 4.92726 23.3826 5.06009 23.4611L5.53707 23.7388ZM27.3695 6.05428C27.3695 6.50108 27.0556 7.05051 26.6631 7.27391C26.4518 7.4007 26.2586 7.39466 26.1318 7.29202L25.685 7.03843C25.5642 6.97202 25.4857 6.809 25.4857 6.59164C25.4857 6.14485 25.7937 5.60145 26.1861 5.37806C26.3793 5.26334 26.5544 5.2573 26.6873 5.32976L27.134 5.58938C27.1461 5.59542 27.1582 5.60145 27.1642 5.60749C27.291 5.67994 27.3695 5.83089 27.3695 6.05428Z" fill="#5EC363"/>
<path d="M5.53488 23.7365C5.40568 23.6622 5.22937 23.6761 5.03254 23.7908C4.64613 24.0082 4.33337 24.5576 4.33337 24.999C4.33337 25.223 4.41488 25.3793 4.53685 25.4536L4.06228 25.1759C3.93307 25.101 3.85156 24.9446 3.85156 24.7206C3.85156 24.2799 4.17096 23.7304 4.55073 23.5131C4.74756 23.3972 4.93111 23.3839 5.05971 23.4587L5.53488 23.7365Z" fill="#5EC363"/>
<path d="M5.03181 23.7885C5.42185 23.5633 5.73943 23.7438 5.74064 24.187C5.74185 24.635 5.42668 25.1814 5.03664 25.4066C4.65083 25.6288 4.33324 25.4482 4.33203 25.0002C4.33083 24.5571 4.64539 24.0107 5.03181 23.7885Z" fill="#78E75A"/>
<path d="M27.1677 5.60758C27.0385 5.53271 26.8555 5.53996 26.6587 5.65528C26.2783 5.87868 25.9595 6.42207 25.9595 6.87007C25.9595 7.08743 26.0411 7.25045 26.1703 7.31807L25.6878 7.03973C25.5659 6.97151 25.4844 6.80909 25.4844 6.59173C25.4844 6.14373 25.7965 5.60094 26.1835 5.37694C26.3804 5.26162 26.5567 5.25438 26.6859 5.32924L27.1677 5.60758Z" fill="#5EC363"/>
<path d="M26.6617 5.65457C27.0517 5.42936 27.3693 5.61049 27.3705 6.05306C27.3717 6.50166 27.0566 7.04808 26.6665 7.27268C26.2807 7.49608 25.9631 7.31495 25.9619 6.86634C25.9607 6.42378 26.2753 5.87736 26.6617 5.65457Z" fill="#78E75A"/>
<path d="M27.3759 8.87389C27.382 9.32068 27.062 9.86408 26.6755 10.0935C26.4642 10.2143 26.265 10.2143 26.1382 10.1116C26.1503 10.1237 26.1623 10.1358 26.1744 10.1418L25.6974 9.86408C25.5706 9.78559 25.4921 9.63464 25.4921 9.40521C25.4921 8.96446 25.8061 8.41502 26.1925 8.19163C26.3857 8.08295 26.5608 8.07087 26.6936 8.14332L27.1767 8.42106C27.145 8.40277 27.1102 8.39048 27.074 8.38483C27.2552 8.4271 27.3759 8.59615 27.3759 8.87389ZM5.51931 18.1056C5.6461 18.178 5.72459 18.329 5.72459 18.5524C5.72459 18.9992 5.41063 19.5426 5.01818 19.772C4.82497 19.8807 4.64988 19.8928 4.52308 19.8203L4.04007 19.5426C3.91931 19.4701 3.84082 19.3131 3.84082 19.0897C3.84082 18.6369 4.14875 18.0996 4.53516 17.8701C4.73441 17.7554 4.9095 17.7494 5.03629 17.8279L5.47705 18.0814C5.48912 18.0875 5.50724 18.0935 5.51931 18.1056Z" fill="#DF3260"/>
<path d="M5.52061 18.1037C5.392 18.0288 5.2157 18.0355 5.01887 18.1514C4.63185 18.3748 4.31246 18.9182 4.31246 19.3662C4.3197 19.5896 4.39397 19.7465 4.52378 19.8208L4.04136 19.5425C3.9194 19.4676 3.83789 19.3118 3.83789 19.0878C3.83789 18.6398 4.15004 18.097 4.53646 17.873C4.73389 17.7577 4.91019 17.7505 5.0388 17.8253L5.52061 18.1037Z" fill="#DF3260"/>
<path d="M5.01618 18.1517C5.40622 17.9265 5.7232 18.1071 5.72441 18.5502C5.72562 18.9982 5.41045 19.5447 5.02041 19.7699C4.6352 19.9921 4.31762 19.8115 4.31641 19.3635C4.3152 18.9204 4.63037 18.3739 5.01618 18.1517Z" fill="#F45170"/>
<path d="M27.1745 8.42401C27.0459 8.34915 26.869 8.35579 26.6722 8.47111C26.2858 8.69511 25.9664 9.2379 25.9664 9.68651C25.9736 9.9099 26.0479 10.0663 26.1771 10.1411L25.6953 9.86281C25.5727 9.78794 25.4912 9.63217 25.4912 9.40817C25.4912 8.96741 25.804 8.41737 26.1904 8.19337C26.3872 8.08469 26.5635 8.07081 26.6927 8.14507L27.1745 8.42401Z" fill="#DF3260"/>
<path d="M26.6689 8.47304C27.0589 8.24783 27.3765 8.42836 27.3777 8.87153C27.3789 9.32013 27.0638 9.86594 26.6737 10.0911C26.2879 10.3139 25.9709 10.1334 25.9697 9.68481C25.9679 9.24164 26.2837 8.69583 26.6689 8.47304Z" fill="#F45170"/>
<path d="M5.52517 20.9195C5.65196 20.992 5.73045 21.1429 5.73045 21.3663C5.73045 21.8191 5.41649 22.3625 5.03008 22.5859C4.81272 22.7127 4.61951 22.7067 4.49272 22.604C4.50479 22.6222 4.51687 22.6342 4.52894 22.6403L4.05196 22.3565C3.92517 22.284 3.84668 22.1271 3.84668 21.9037C3.84668 21.4629 4.1546 20.9135 4.54102 20.6901C4.74026 20.5814 4.9214 20.5693 5.04819 20.6418L5.48291 20.8954C5.49498 20.9014 5.51309 20.9074 5.52517 20.9195ZM27.3878 11.6878C27.3878 12.1406 27.0738 12.684 26.6814 12.9074C26.4882 13.0222 26.3131 13.0282 26.1863 12.9557L25.7093 12.678C25.5765 12.6055 25.498 12.4486 25.498 12.2252C25.498 11.7844 25.812 11.235 26.1984 11.0116C26.3916 10.9029 26.5788 10.8848 26.6995 10.9633L27.1825 11.241C27.3093 11.3135 27.3818 11.4705 27.3878 11.6878Z" fill="#B0B8CF"/>
<path d="M5.52805 20.9202C5.39884 20.8453 5.22254 20.8586 5.02571 20.9673C4.63929 21.1913 4.31929 21.7413 4.32654 22.1821C4.32654 22.4061 4.40141 22.5625 4.53001 22.6367L4.05484 22.359C3.92624 22.2841 3.84473 22.1278 3.84473 21.9044C3.84473 21.463 4.15688 20.913 4.5439 20.689C4.74073 20.5803 4.92427 20.567 5.04624 20.6419L5.52805 20.9202Z" fill="#B0B8CF"/>
<path d="M5.024 20.97C5.41403 20.7448 5.73101 20.9259 5.73283 21.3685C5.73403 21.8171 5.41886 22.3629 5.02883 22.5881C4.64241 22.8109 4.32543 22.6304 4.32422 22.1818C4.32301 21.7386 4.63818 21.1928 5.024 20.97Z" fill="#E3E7F0"/>
<path d="M27.1817 11.2405C27.0531 11.1657 26.8768 11.1789 26.68 11.2876C26.293 11.5116 25.9736 12.0617 25.9808 12.5024C25.9808 12.7264 26.0551 12.8828 26.1843 12.9571L25.7091 12.6793C25.5805 12.6045 25.499 12.4481 25.499 12.2241C25.499 11.7833 25.8112 11.2339 26.1976 11.0093C26.3944 10.9006 26.578 10.8873 26.6999 10.9622L27.1817 11.2405Z" fill="#B0B8CF"/>
<path d="M26.6773 11.2903C27.0674 11.0651 27.3843 11.2462 27.3855 11.6888C27.3867 12.1374 27.0716 12.6838 26.6815 12.9084C26.2957 13.1318 25.9788 12.9507 25.9775 12.5027C25.9763 12.0595 26.2915 11.5131 26.6773 11.2903Z" fill="#E3E7F0"/>
<path d="M6.3967 14.1886C5.79534 14.1886 5.3087 14.6752 5.3087 15.2766C5.3087 14.9765 5.18674 14.7036 4.99051 14.5068C4.78613 14.303 4.5093 14.1886 4.2207 14.1886C4.52078 14.1886 4.79368 14.0666 4.99051 13.8704C5.18674 13.6736 5.3087 13.4007 5.3087 13.1006C5.3087 13.4007 5.43067 13.6736 5.62689 13.8704C5.82372 14.0666 6.09663 14.1886 6.3967 14.1886Z" fill="white"/>
</svg>
