<svg width="36" height="36" viewBox="0 0 36 36" fill="none" xmlns="http://www.w3.org/2000/svg">
<path fill-rule="evenodd" clip-rule="evenodd" d="M33.165 9.74331C33.7217 10.0413 34.1962 10.4723 34.5461 10.998C35.4972 12.4246 36 14.0853 36 15.7999L34.8346 16.1634C32.951 18.3612 31.2364 20.711 29.7389 23.1852L29.0323 24.3279C29.0323 24.0404 28.7983 23.8065 28.5108 23.8065C28.4189 23.8066 28.3285 23.8309 28.2489 23.8769C28.1693 23.923 28.1033 23.9892 28.0574 24.0689L26.8572 26.1708C26.3373 27.0807 25.8911 28.0308 25.5228 29.0119L25.1657 29.9654C24.6076 31.4515 23.8814 32.869 23.0011 34.1901C22.2451 35.3235 20.981 36 19.6194 36H9.94006C8.26084 36 6.65594 35.1975 5.6491 33.8539C5.3752 33.4876 5.22676 33.0426 5.22581 32.5852C5.22581 31.5859 5.9069 30.737 6.88239 30.5205C8.28987 30.2081 9.6509 29.7006 10.9283 29.0323H1.74194C0.781548 29.0323 0 28.2507 0 27.2903V12.7742C0 5.73039 5.73039 0 12.7742 0C19.818 0 25.5484 5.73039 25.5484 12.7742V18.4198L31.0262 9.29032H31.3548C31.9863 9.28975 32.6082 9.44536 33.165 9.74331ZM24.3871 12.7742C24.3871 6.37084 19.1775 1.16129 12.7742 1.16129C6.37084 1.16129 1.16129 6.37084 1.16129 12.7742H2.32258C2.32258 7.01129 7.01129 2.32258 12.7742 2.32258C18.5371 2.32258 23.2258 7.01129 23.2258 12.7742H24.3871ZM12.7742 3.48387C7.65174 3.48387 3.48387 7.65174 3.48387 12.7742H22.0645C22.0645 7.65174 17.8966 3.48387 12.7742 3.48387ZM24.3871 18.1277V13.9355H1.16129V18.1277L9.29032 20.16V17.4194H16.2581V20.16L24.3871 18.1277ZM10.4516 18.5806V19.7419H15.0968V18.5806H10.4516ZM15.0968 22.6452V20.9032H10.4516V22.6452C10.4516 22.9657 10.7117 23.2258 11.0323 23.2258H14.5161C14.8366 23.2258 15.0968 22.9657 15.0968 22.6452ZM1.16129 27.2903C1.16129 27.6108 1.42142 27.871 1.74194 27.871H12.7742V27.907C13.1342 27.6532 13.4884 27.3902 13.8269 27.108L14.4389 26.5994L14.8099 26.7886C15.4666 27.1161 16.2052 27.2903 16.9421 27.2903C18.2177 27.2903 19.4174 26.7933 20.3197 25.891C21.558 24.6529 22.6397 23.2676 23.5405 21.7661L24.4068 20.3226H24.3871V19.3239L16.2581 21.3561V22.6452C16.2581 23.6055 15.4765 24.3871 14.5161 24.3871H11.0323C10.0719 24.3871 9.29032 23.6055 9.29032 22.6452V21.3561L1.16129 19.3239V27.2903ZM28.6418 22.6569C28.6595 22.6593 28.6771 22.6617 28.6949 22.6637C30.4397 19.7692 32.4697 17.0344 34.7249 14.5173C34.5478 13.4954 34.1634 12.5181 33.5805 11.6431C33.3664 11.3212 33.085 11.0496 32.7556 10.8472C32.4263 10.6448 32.0569 10.5164 31.673 10.4708L24.5369 22.3641C23.5868 23.9468 22.4465 25.4072 21.1413 26.7126C20.0195 27.8338 18.529 28.4516 16.9421 28.4516C16.1425 28.4516 15.3412 28.2867 14.6044 27.972L14.5707 28.0005C12.4281 29.7859 9.85645 31.05 7.13381 31.655C6.69426 31.752 6.3871 32.1352 6.3871 32.5852C6.3871 32.767 6.44806 32.9441 6.54619 33.0968H9.29032V34.2581H7.82593C8.46232 34.6285 9.18987 34.8387 9.94006 34.8387H19.6194C20.592 34.8387 21.4949 34.3556 22.0355 33.5456C22.2207 33.2675 22.3966 32.9835 22.5674 32.6961C21.485 33.2152 20.3522 33.6205 19.1735 33.8824C18.0517 34.1315 16.9008 34.2581 15.7517 34.2581H10.4516V33.0968H15.7517C16.8179 33.0965 17.8808 32.9797 18.9215 32.7484C20.5497 32.3873 22.1038 31.7494 23.5161 30.8625L23.5225 30.8735C23.7217 30.4409 23.911 30.0037 24.0782 29.5577L24.4353 28.6043C24.8253 27.565 25.2981 26.5586 25.8492 25.5948L27.0494 23.4929C27.3484 22.9703 27.9087 22.6452 28.5108 22.6452C28.5554 22.6452 28.5985 22.651 28.6418 22.6569Z" fill="#858585"/>
<path d="M29.0323 24.3279V36H32.5161V30.8816C32.5164 29.3031 32.6724 27.7286 32.9818 26.1807L33.0213 25.9815C33.4391 23.893 34.1335 21.8694 35.0861 19.9643C35.6841 18.7694 36 17.4304 36 16.0937V15.7999L34.8346 16.1634C34.8236 17.298 34.5542 18.4314 34.0473 19.4452C33.0487 21.443 32.3207 23.565 31.8826 25.7551L31.8432 25.9543C31.5189 27.5767 31.3553 29.2271 31.3548 30.8816V34.8387H30.1935V24.3279C30.1935 23.8854 30.0188 23.4859 29.7389 23.1852L29.0323 24.3279Z" fill="#858585"/>
<path d="M23.2258 12.7742C23.2258 7.01129 18.5371 2.32258 12.7742 2.32258C7.01129 2.32258 2.32258 7.01129 2.32258 12.7742H3.48387C3.48387 7.65174 7.65174 3.48387 12.7742 3.48387C17.8966 3.48387 22.0645 7.65174 22.0645 12.7742H23.2258Z" fill="#858585"/>
<path d="M25.5484 12.7742C25.5484 5.73039 19.818 0 12.7742 0C5.73039 0 0 5.73039 0 12.7742H1.16129C1.16129 6.37084 6.37084 1.16129 12.7742 1.16129C19.1775 1.16129 24.3871 6.37084 24.3871 12.7742H25.5484Z" fill="#858585"/>
</svg>
