<svg width="40" height="40" viewBox="0 0 40 40" fill="none" xmlns="http://www.w3.org/2000/svg">
<path d="M14.2905 25.4746V26.2756C14.2905 26.7788 14.7012 27.1895 15.2044 27.1895H38.5002C39.0033 27.1895 39.414 26.7788 39.414 26.2756V25.4746C39.414 12.8054 14.2905 12.8054 14.2905 25.4746Z" stroke="#858585" stroke-width="1.3" stroke-miterlimit="10" stroke-linecap="round" stroke-linejoin="round"/>
<path d="M14.9337 32.0808L5.13252 35.4766M3.74268 25.2713L15.3354 21.3836" stroke="#858585" stroke-width="1.3" stroke-miterlimit="10" stroke-linecap="round" stroke-linejoin="round"/>
<path d="M36.061 24.2601L36.0656 24.2646" stroke="#858585" stroke-width="1.3" stroke-miterlimit="10" stroke-linecap="round" stroke-linejoin="round"/>
<path d="M32.3765 24.2601L32.381 24.2646" stroke="#858585" stroke-width="1.3" stroke-miterlimit="10" stroke-linecap="round" stroke-linejoin="round"/>
<path d="M28.6924 24.2601L28.6969 24.2646" stroke="#858585" stroke-width="1.3" stroke-miterlimit="10" stroke-linecap="round" stroke-linejoin="round"/>
<path d="M25.0078 24.2601L25.0123 24.2646" stroke="#858585" stroke-width="1.3" stroke-miterlimit="10" stroke-linecap="round" stroke-linejoin="round"/>
<path d="M21.3232 24.2601L21.3278 24.2646" stroke="#858585" stroke-width="1.3" stroke-miterlimit="10" stroke-linecap="round" stroke-linejoin="round"/>
<path d="M17.6387 24.2601L17.6432 24.2646" stroke="#858585" stroke-width="1.3" stroke-miterlimit="10" stroke-linecap="round" stroke-linejoin="round"/>
<path d="M34.2202 21.458L34.2247 21.4648" stroke="#858585" stroke-width="1.3" stroke-miterlimit="10" stroke-linecap="round" stroke-linejoin="round"/>
<path d="M30.5332 21.458L30.54 21.4648" stroke="#858585" stroke-width="1.3" stroke-miterlimit="10" stroke-linecap="round" stroke-linejoin="round"/>
<path d="M26.8442 21.4535L26.8488 21.458" stroke="#858585" stroke-width="1.3" stroke-miterlimit="10" stroke-linecap="round" stroke-linejoin="round"/>
<path d="M23.1597 21.4535L23.1642 21.458" stroke="#858585" stroke-width="1.3" stroke-miterlimit="10" stroke-linecap="round" stroke-linejoin="round"/>
<path d="M19.4707 21.4473L19.4752 21.4541" stroke="#858585" stroke-width="1.3" stroke-miterlimit="10" stroke-linecap="round" stroke-linejoin="round"/>
<path d="M28.692 18.6583L28.6875 18.665" stroke="#858585" stroke-width="1.3" stroke-miterlimit="10" stroke-linecap="round" stroke-linejoin="round"/>
<path d="M25.0079 18.6583L25.0034 18.665" stroke="#858585" stroke-width="1.3" stroke-miterlimit="10" stroke-linecap="round" stroke-linejoin="round"/>
<path d="M26.3299 35.617H14.7079C14.4778 35.617 14.2905 35.8042 14.2905 36.0321V37.5145C14.2905 38.557 15.1457 39.4121 16.1881 39.4121H37.5165C38.5589 39.4121 39.414 38.557 39.414 37.5145V36.0321C39.414 35.8042 39.2268 35.617 38.9966 35.617H29.0871" stroke="#858585" stroke-width="1.3" stroke-miterlimit="10" stroke-linecap="round" stroke-linejoin="round"/>
<path d="M13.2887 12.3877H1.54257C1.01687 12.3877 0.585938 11.9567 0.585938 11.4311V10.0885C0.585938 9.56052 1.01687 9.12958 1.54257 9.12958H26.797C27.3227 9.12958 27.7536 9.56052 27.7536 10.0885V11.4311C27.7536 11.9567 27.3227 12.3877 26.797 12.3877H16.0729" stroke="#858585" stroke-width="1.3" stroke-miterlimit="10" stroke-linecap="round" stroke-linejoin="round"/>
<path d="M13.3047 9.12988V3.48451C13.3047 2.8799 13.6995 2.36764 14.2862 2.2142L20.3622 0.630299C21.0618 0.44983 21.7815 0.871782 21.9642 1.57123C22.1447 2.26842 21.7228 2.98818 21.0256 3.17099L15.9287 4.49763V9.12988" stroke="#858585" stroke-width="1.3" stroke-miterlimit="10" stroke-linecap="round" stroke-linejoin="round"/>
<path d="M16.1882 39.4121H6.85401C6.10042 39.4121 5.58378 38.7871 5.48222 38.0402L1.9873 12.3881M26.3526 12.3881L25.8608 16.0005" stroke="#858585" stroke-width="1.3" stroke-miterlimit="10" stroke-linecap="round" stroke-linejoin="round"/>
<path d="M37.6314 27.1894C37.6314 30.4295 34.6283 30.9079 33.1459 29.5766C32.9744 29.4254 32.918 29.4074 32.7579 29.5743C32.2276 30.1316 31.5733 30.4092 30.919 30.4092C30.2647 30.4092 29.6081 30.1316 29.0779 29.5743C28.9087 29.4208 28.85 29.405 28.6921 29.5721C28.1619 30.1294 27.5076 30.4069 26.8509 30.4069C26.1966 30.4069 25.5423 30.1294 25.0121 29.5721C24.8541 29.405 24.7955 29.4208 24.624 29.5743C24.0938 30.1316 23.4395 30.4092 22.7852 30.4092C22.1309 30.4092 21.4766 30.1316 20.9463 29.5743C20.7861 29.4074 20.7274 29.4254 20.5582 29.5766C19.0736 30.9079 16.0728 30.4295 16.0728 27.1894" stroke="#858585" stroke-width="1.3" stroke-miterlimit="10" stroke-linecap="round" stroke-linejoin="round"/>
<path d="M16.7519 29.3734H16.4473C15.4681 29.3734 14.6694 30.1744 14.6694 31.1514C14.6694 32.1306 15.4681 32.9316 16.4473 32.9316H37.2569C38.2338 32.9316 39.0348 32.1306 39.0348 31.1514C39.0348 30.1744 38.2338 29.3734 37.2569 29.3734H36.9523" stroke="#858585" stroke-width="1.3" stroke-miterlimit="10" stroke-linecap="round" stroke-linejoin="round"/>
<path d="M37.3042 35.6162V32.9312M16.3999 32.9312V35.6162" stroke="#858585" stroke-width="1.3" stroke-miterlimit="10" stroke-linecap="round" stroke-linejoin="round"/>
</svg>
