<svg width="24" height="24" viewBox="0 0 24 24" fill="none" xmlns="http://www.w3.org/2000/svg">
<g filter="url(#filter0_d_772_3829)">
<path d="M1.57861 11.6849L6.94703 2.84277H17.3681L22.1049 12.3165L17.3681 20.8428H6.94703L1.57861 11.6849Z" fill="#D9D9D9"/>
</g>
<path d="M17.4407 2.49512H6.55783C6.52912 2.49512 6.50258 2.51043 6.48823 2.53529L1.0469 11.96C1.03985 11.9723 1.03613 11.9861 1.03613 12.0002C1.03613 12.0144 1.03985 12.0282 1.0469 12.0404L6.48827 21.4652C6.50263 21.4901 6.52917 21.5054 6.55787 21.5054H17.4406C17.4693 21.5054 17.4959 21.4901 17.5102 21.4652L22.9517 12.0404C22.9587 12.0282 22.9624 12.0144 22.9624 12.0002C22.9624 11.9861 22.9587 11.9723 22.9517 11.96L17.5103 2.53529C17.5033 2.52307 17.4931 2.51293 17.4809 2.50587C17.4687 2.49882 17.4548 2.49511 17.4407 2.49512Z" fill="url(#paint0_linear_772_3829)"/>
<path d="M17.2494 2.83008H6.74939C6.72169 2.83008 6.69606 2.84486 6.68224 2.86886L1.43228 11.9621C1.42546 11.9739 1.42188 11.9873 1.42188 12.0009C1.42188 12.0145 1.42546 12.0279 1.43228 12.0397L6.68224 21.133C6.69611 21.157 6.72169 21.1717 6.74939 21.1717H17.2494C17.2771 21.1717 17.3028 21.157 17.3166 21.133L22.5666 12.0397C22.5805 12.0157 22.5805 11.9861 22.5666 11.9621L17.3166 2.86886C17.3098 2.85707 17.3 2.84728 17.2882 2.84047C17.2764 2.83366 17.2631 2.83008 17.2494 2.83008Z" fill="url(#paint1_linear_772_3829)"/>
<path d="M17.0529 20.5362H7.72787C7.53565 20.5362 7.34681 20.4856 7.18034 20.3894C7.01387 20.2933 6.87564 20.1551 6.77954 19.9886L2.11701 11.9128C2.02088 11.7464 1.97027 11.5575 1.97027 11.3653C1.97027 11.1731 2.02088 10.9843 2.11701 10.8178L6.48568 3.25098C6.45275 3.29254 6.41579 3.33027 6.38882 3.37698L1.72629 11.4527C1.63018 11.6192 1.57959 11.808 1.57959 12.0002C1.57959 12.1924 1.63018 12.3812 1.72629 12.5477L6.38886 20.6235C6.48497 20.7899 6.62321 20.9282 6.78968 21.0243C6.95615 21.1204 7.14498 21.171 7.3372 21.171H16.6623C16.8545 21.171 17.0433 21.1204 17.2098 21.0243C17.3763 20.9282 17.5145 20.7899 17.6106 20.6235L17.9045 20.1145C17.6986 20.3745 17.3903 20.5362 17.0529 20.5362Z" fill="#C20000" fill-opacity="0.0627451"/>
<path d="M22.2731 11.4534L17.6106 3.37766C17.5145 3.21117 17.3763 3.07292 17.2098 2.9768C17.0433 2.88068 16.8545 2.83007 16.6622 2.83008H7.33718C7.14495 2.83008 6.95611 2.88069 6.78964 2.97681C6.62318 3.07293 6.48494 3.21118 6.38884 3.37766L6.29688 3.53683C6.48302 3.39797 6.70646 3.31195 6.94646 3.31195H16.2715C16.4637 3.31196 16.6526 3.36256 16.8191 3.45868C16.9855 3.5548 17.1238 3.69305 17.2199 3.85953L21.8824 11.9352C21.9785 12.1017 22.0291 12.2905 22.0291 12.4828C22.0291 12.675 21.9785 12.8638 21.8824 13.0303L17.3117 20.9469C17.4292 20.8594 17.5349 20.7552 17.6106 20.6242L22.2731 12.5484C22.3692 12.382 22.4199 12.1931 22.4199 12.0009C22.4199 11.8087 22.3693 11.6199 22.2731 11.4534Z" fill="#FFEEA2" fill-opacity="0.188235"/>
<path d="M16.2301 4.61133H7.76974C7.75877 4.61132 7.748 4.61421 7.7385 4.61969C7.729 4.62518 7.72112 4.63307 7.71564 4.64258L3.4854 11.9695C3.47993 11.979 3.47705 11.9898 3.47705 12.0007C3.47705 12.0117 3.47993 12.0225 3.4854 12.032L7.71564 19.3589C7.72683 19.3782 7.74742 19.3901 7.76974 19.3901H16.2301C16.2524 19.3901 16.2731 19.3782 16.2843 19.3589L20.5144 12.032C20.5199 12.0225 20.5228 12.0117 20.5228 12.0007C20.5228 11.9898 20.5199 11.979 20.5144 11.9695L16.2843 4.64258C16.2788 4.63308 16.2709 4.6252 16.2614 4.61972C16.2519 4.61423 16.2411 4.61134 16.2301 4.61133Z" fill="url(#paint2_linear_772_3829)"/>
<path d="M20.2777 11.5595L16.5208 5.0525C16.4434 4.91836 16.332 4.80697 16.1979 4.72953C16.0638 4.65209 15.9116 4.61132 15.7567 4.61133H8.24301C8.08813 4.61133 7.93598 4.65209 7.80184 4.72954C7.66771 4.80698 7.55633 4.91836 7.4789 5.0525L7.44727 5.10731C7.60706 4.8449 7.89064 4.68242 8.1989 4.68242H15.7126C15.8675 4.68241 16.0196 4.72317 16.1538 4.8006C16.2879 4.87803 16.3993 4.98941 16.4768 5.12354L20.2336 11.6306C20.3111 11.7647 20.3518 11.9169 20.3518 12.0718C20.3518 12.2267 20.3111 12.3789 20.2336 12.513L16.5085 18.9649C16.512 18.9591 16.5174 18.9548 16.5208 18.9489L20.2777 12.4419C20.3551 12.3077 20.3959 12.1556 20.3959 12.0007C20.3959 11.8458 20.3551 11.6936 20.2777 11.5595Z" fill="url(#paint3_linear_772_3829)"/>
<path d="M16.1165 4.80957H7.88268C7.86094 4.80957 7.84088 4.82114 7.83003 4.84L3.71321 11.9706C3.70788 11.9798 3.70508 11.9903 3.70508 12.001C3.70508 12.0117 3.70788 12.0222 3.71321 12.0314L7.83007 19.162C7.84092 19.1808 7.86103 19.1924 7.88273 19.1924H16.1165C16.1272 19.1924 16.1377 19.1896 16.1469 19.1843C16.1562 19.1789 16.1639 19.1712 16.1692 19.162L20.286 12.0314C20.2913 12.0222 20.2941 12.0117 20.2941 12.001C20.2941 11.9903 20.2913 11.9798 20.286 11.9706L16.1692 4.84C16.1639 4.83075 16.1562 4.82306 16.1469 4.81772C16.1377 4.81238 16.1272 4.80957 16.1165 4.80957Z" fill="url(#paint4_linear_772_3829)"/>
<path d="M16.0159 18.5972H8.70345C8.55272 18.5972 8.40465 18.5575 8.27411 18.4821C8.14357 18.4068 8.03516 18.2984 7.95979 18.1679L4.30358 11.8351C4.22823 11.7046 4.18857 11.5565 4.18857 11.4058C4.18857 11.255 4.22823 11.107 4.30358 10.9764L7.6667 5.15137C7.64448 5.18046 7.61846 5.20604 7.59989 5.23825L3.94363 11.571C3.86828 11.7016 3.82861 11.8496 3.82861 12.0004C3.82861 12.1511 3.86828 12.2992 3.94363 12.4297L7.59989 18.7625C7.67526 18.893 7.78366 19.0014 7.9142 19.0768C8.04474 19.1521 8.19282 19.1918 8.34355 19.1918H15.6559C15.9627 19.1918 16.2462 19.0281 16.3996 18.7625L16.6926 18.2549C16.5315 18.4658 16.2854 18.5972 16.0159 18.5972Z" fill="#FFDD45" fill-opacity="0.188235"/>
<path d="M20.0556 11.5707L16.3993 5.238C16.324 5.10745 16.2156 4.99904 16.085 4.92366C15.9545 4.84829 15.8064 4.8086 15.6557 4.80859H8.34329C8.19255 4.80861 8.04447 4.8483 7.91394 4.92368C7.7834 4.99905 7.675 5.10746 7.59963 5.238L7.22705 5.88336C7.35826 5.80654 7.50753 5.76598 7.65958 5.76586H14.972C15.1227 5.76586 15.2708 5.80555 15.4014 5.88093C15.5319 5.9563 15.6403 6.06472 15.7157 6.19527L19.3719 12.528C19.4473 12.6585 19.4869 12.8066 19.4869 12.9573C19.4869 13.108 19.4473 13.2561 19.3719 13.3867L16.0883 19.0741C16.2174 18.999 16.3247 18.8915 16.3994 18.7622L20.0557 12.4294C20.131 12.2988 20.1706 12.1508 20.1706 12C20.1706 11.8493 20.1309 11.7012 20.0556 11.5707Z" fill="url(#paint5_linear_772_3829)"/>
<path d="M12.2242 7.60936L13.9401 9.70369C14.0008 9.77764 14.0794 9.83476 14.1685 9.86958L16.6906 10.8543C17.0182 10.9823 17.1469 11.3781 16.957 11.6742L15.4954 13.9533C15.4438 14.0338 15.4138 14.1263 15.4082 14.2217L15.251 16.9247C15.2305 17.2759 14.8938 17.5205 14.5535 17.4314L11.9343 16.7456C11.8418 16.7214 11.7446 16.7214 11.652 16.7456L9.03276 17.4314C8.69249 17.5205 8.35582 17.2759 8.33542 16.9247L8.17817 14.2217C8.17262 14.1263 8.14258 14.0338 8.09095 13.9533L6.6294 11.6742C6.43951 11.3781 6.56806 10.9823 6.89575 10.8543L9.41787 9.86958C9.50694 9.83477 9.58556 9.77764 9.6462 9.70369L11.3622 7.60936C11.5851 7.33725 12.0013 7.33725 12.2242 7.60936Z" fill="#BA0000" fill-opacity="0.12549"/>
<path d="M12.3648 7.36815L14.0807 9.46248C14.1413 9.5365 14.2199 9.59364 14.3091 9.62837L16.8311 10.6131C17.1588 10.7411 17.2874 11.1369 17.0975 11.433L15.6359 13.7122C15.5843 13.7927 15.5543 13.8851 15.5487 13.9805L15.3915 16.6835C15.3711 17.0347 15.0344 17.2793 14.6941 17.1902L12.0748 16.5045C11.9823 16.4803 11.8852 16.4803 11.7927 16.5045L9.17339 17.1902C8.83312 17.2793 8.49645 17.0347 8.47605 16.6835L8.31875 13.9805C8.31319 13.8851 8.28317 13.7927 8.23158 13.7122L6.76998 11.433C6.58014 11.1369 6.70874 10.7411 7.03638 10.6131L9.5585 9.62837C9.64758 9.59358 9.72621 9.53645 9.78683 9.46248L11.5028 7.36815C11.7257 7.09603 12.1418 7.09603 12.3648 7.36815Z" fill="#BA0000" fill-opacity="0.12549"/>
<path d="M12.4043 7.17674L14.1202 9.27108C14.1809 9.34503 14.2595 9.40215 14.3486 9.43696L16.8706 10.4217C17.1983 10.5497 17.3269 10.9455 17.137 11.2416L15.6755 13.5207C15.6239 13.6012 15.5938 13.6936 15.5883 13.7891L15.431 16.4921C15.4106 16.8433 15.074 17.0879 14.7337 16.9987L12.1144 16.313C12.0219 16.2888 11.9247 16.2888 11.8321 16.313L9.21287 16.9987C8.8726 17.0879 8.53593 16.8433 8.51553 16.4921L8.35828 13.7891C8.35273 13.6936 8.32269 13.6012 8.27106 13.5207L6.80956 11.2416C6.61967 10.9455 6.74831 10.5497 7.07591 10.4217L9.59797 9.43696C9.68704 9.40215 9.76567 9.34502 9.82631 9.27108L11.5424 7.17674C11.7652 6.90463 12.1814 6.90463 12.4043 7.17674Z" fill="url(#paint6_linear_772_3829)"/>
<g opacity="0.3">
<path d="M15.58 13.7164C15.5284 13.7969 15.4984 13.8894 15.4928 13.9848L15.3355 16.6878C15.3332 16.7275 15.314 16.7595 15.3041 16.7961C15.3718 16.7102 15.424 16.6114 15.4309 16.4921L15.5882 13.7891C15.5918 13.7276 15.6213 13.6726 15.6445 13.6159L15.58 13.7164ZM16.8706 10.4218L14.3485 9.43699C14.2594 9.40215 14.1807 9.34499 14.1201 9.271L12.4042 7.17667C12.1813 6.90465 11.7651 6.90465 11.5421 7.17667L9.82623 9.271C9.76558 9.34499 9.68694 9.40215 9.59784 9.43699L7.07578 10.4218C6.89842 10.491 6.78639 10.6401 6.74463 10.808C6.80439 10.7276 6.87869 10.6572 6.9804 10.6175L9.50252 9.63259C9.59161 9.59781 9.67026 9.5407 9.7309 9.46675L11.4468 7.37241C11.6698 7.1003 12.086 7.1003 12.3088 7.37241L14.0248 9.46675C14.0854 9.54071 14.164 9.59782 14.2531 9.63259L16.7753 10.6175C17.0655 10.7308 17.1854 11.0518 17.0802 11.3301L17.137 11.2415C17.3269 10.9455 17.1982 10.5497 16.8706 10.4218Z" fill="#FFD069"/>
</g>
<g opacity="0.4">
<path d="M14.8436 16.668L12.2244 15.9823C12.1319 15.9581 12.0347 15.9581 11.9421 15.9823L9.32288 16.668C8.98261 16.7571 8.64598 16.5124 8.62554 16.1613L8.46834 13.4583C8.46279 13.3628 8.43275 13.2704 8.38112 13.1899L6.91957 10.9108C6.85885 10.8161 6.84109 10.7124 6.84162 10.6094C6.70688 10.788 6.67746 11.0367 6.80907 11.242L8.27067 13.5212C8.3223 13.6017 8.35234 13.6941 8.35789 13.7896L8.51514 16.4925C8.53554 16.8437 8.87221 17.0883 9.21248 16.9992L11.8317 16.3135C11.9243 16.2893 12.0214 16.2893 12.1139 16.3135L14.7332 16.9992C15.0735 17.0883 15.4101 16.8437 15.4306 16.4925L15.4335 16.4435C15.3049 16.6255 15.0786 16.7295 14.8436 16.668Z" fill="url(#paint7_linear_772_3829)"/>
<path d="M15.7862 13.1903C15.7346 13.2708 15.7045 13.3633 15.6989 13.4587L15.6973 13.4881L17.1373 11.2423C17.1944 11.1533 17.2144 11.0561 17.217 10.959L15.7862 13.1903Z" fill="url(#paint8_linear_772_3829)"/>
</g>
<path d="M12.2187 8.08344L13.6594 9.84182C13.7102 9.90393 13.7763 9.95188 13.8511 9.98107L15.9685 10.8079C16.2436 10.9153 16.3516 11.2476 16.1921 11.4961L14.9651 13.4097C14.9217 13.4773 14.8964 13.5549 14.8918 13.6351L14.7599 15.9045C14.7427 16.1993 14.46 16.4046 14.1743 16.3298L11.9753 15.754C11.8976 15.7337 11.816 15.7337 11.7384 15.754L9.53933 16.3297C9.25363 16.4046 8.97091 16.1992 8.95378 15.9044L8.82178 13.635C8.8171 13.5549 8.7919 13.4773 8.74858 13.4097L7.52146 11.4961C7.36205 11.2475 7.47 10.9152 7.74509 10.8078L9.86261 9.98102C9.9374 9.95182 10.0034 9.90386 10.0543 9.84178L11.495 8.08339C11.6821 7.85501 12.0315 7.85501 12.2187 8.08344Z" fill="#F53700" fill-opacity="0.12549"/>
<path d="M12.3349 7.95058L13.7756 9.70897C13.8265 9.77107 13.8925 9.81904 13.9673 9.84827L16.0848 10.6751C16.3598 10.7825 16.4678 11.1147 16.3084 11.3633L15.0813 13.2769C15.0379 13.3445 15.0127 13.4221 15.0081 13.5023L14.8761 15.7716C14.859 16.0664 14.5763 16.2718 14.2906 16.1969L12.0915 15.6212C12.0139 15.6009 11.9322 15.6009 11.8546 15.6212L9.65554 16.1969C9.36979 16.2718 9.08712 16.0664 9.06999 15.7716L8.93799 13.5023C8.93331 13.4221 8.90811 13.3445 8.86479 13.2769L7.63767 11.3633C7.47826 11.1147 7.58621 10.7825 7.8613 10.6751L9.97882 9.84827C10.0536 9.81906 10.1196 9.77109 10.1705 9.70897L11.6112 7.95058C11.7984 7.7222 12.1477 7.7222 12.3349 7.95058Z" fill="url(#paint9_linear_772_3829)"/>
<g opacity="0.3">
<path d="M15.0067 13.4526C14.9633 13.5202 14.9381 13.5978 14.9335 13.678L14.8015 15.9474C14.8 15.9715 14.7871 15.9905 14.7822 16.0135C14.8327 15.944 14.8713 15.8652 14.8768 15.7716L15.0088 13.5023C15.0109 13.4642 15.0323 13.4313 15.0436 13.3951L15.0067 13.4526ZM16.0854 10.6751L13.9679 9.8483C13.8931 9.81909 13.8271 9.7711 13.7762 9.70896L12.3356 7.95062C12.1484 7.72219 11.799 7.72219 11.6118 7.95062L10.1711 9.70896C10.1202 9.77107 10.0542 9.81905 9.97943 9.8483L7.86191 10.6751C7.7049 10.7363 7.61101 10.8723 7.58154 11.0228C7.63228 10.95 7.69636 10.886 7.7866 10.8508L9.90412 10.024C9.97894 9.99479 10.045 9.9468 10.0958 9.88464L11.5365 8.1263C11.7236 7.89792 12.0731 7.89792 12.2602 8.1263L13.7009 9.88464C13.7518 9.94677 13.8178 9.99476 13.8926 10.024L16.0102 10.8508C16.239 10.9402 16.3417 11.1835 16.2814 11.4064L16.3091 11.3634C16.4685 11.1148 16.3606 10.7825 16.0854 10.6751Z" fill="#FFE98B"/>
</g>
<path d="M22.6472 11.4328L17.8147 3.06257C17.7151 2.89004 17.5718 2.74677 17.3993 2.64716C17.2267 2.54755 17.031 2.49511 16.8318 2.49512H7.16676C6.96753 2.49512 6.77181 2.54756 6.59927 2.64717C6.42673 2.74678 6.28344 2.89005 6.18381 3.06257L5.89355 3.56542L17.3312 21.3816C17.529 21.2839 17.7006 21.1355 17.8147 20.9379L22.6472 12.5677C22.7468 12.3951 22.7993 12.1994 22.7993 12.0002C22.7993 11.801 22.7468 11.6053 22.6472 11.4328Z" fill="#FFDD45" fill-opacity="0.12549"/>
<defs>
<filter id="filter0_d_772_3829" x="-2.1477" y="-0.883542" width="29.2422" height="26.7158" filterUnits="userSpaceOnUse" color-interpolation-filters="sRGB">
<feFlood flood-opacity="0" result="BackgroundImageFix"/>
<feColorMatrix in="SourceAlpha" type="matrix" values="0 0 0 0 0 0 0 0 0 0 0 0 0 0 0 0 0 0 127 0" result="hardAlpha"/>
<feOffset dx="0.631579" dy="0.631579"/>
<feGaussianBlur stdDeviation="2.17895"/>
<feComposite in2="hardAlpha" operator="out"/>
<feColorMatrix type="matrix" values="0 0 0 0 1 0 0 0 0 0.631373 0 0 0 0 0.168627 0 0 0 0.36 0"/>
<feBlend mode="normal" in2="BackgroundImageFix" result="effect1_dropShadow_772_3829"/>
<feBlend mode="normal" in="SourceGraphic" in2="effect1_dropShadow_772_3829" result="shape"/>
</filter>
<linearGradient id="paint0_linear_772_3829" x1="1.03613" y1="2.49512" x2="22.9624" y2="2.49512" gradientUnits="userSpaceOnUse">
<stop stop-color="#FFC64F"/>
<stop offset="0.277" stop-color="#E06919"/>
<stop offset="0.707" stop-color="#FFC640"/>
<stop offset="1" stop-color="#FFA02B"/>
</linearGradient>
<linearGradient id="paint1_linear_772_3829" x1="1.42188" y1="2.83008" x2="22.577" y2="2.83008" gradientUnits="userSpaceOnUse">
<stop stop-color="#FFC64F"/>
<stop offset="0.277" stop-color="#E06919"/>
<stop offset="0.707" stop-color="#FFC640"/>
<stop offset="1" stop-color="#FFA02B"/>
</linearGradient>
<linearGradient id="paint2_linear_772_3829" x1="16.5904" y1="6.82677" x2="-2.09196" y2="27.884" gradientUnits="userSpaceOnUse">
<stop stop-color="#E06919"/>
<stop offset="1" stop-color="#FFA02B"/>
</linearGradient>
<linearGradient id="paint3_linear_772_3829" x1="16.8683" y1="6.50085" x2="5.16731" y2="19.6893" gradientUnits="userSpaceOnUse">
<stop stop-color="#941010"/>
<stop offset="1" stop-color="#FFA02B"/>
</linearGradient>
<linearGradient id="paint4_linear_772_3829" x1="3.70508" y1="4.80957" x2="20.2941" y2="4.80957" gradientUnits="userSpaceOnUse">
<stop stop-color="#FFC64F"/>
<stop offset="0.277" stop-color="#E06919"/>
<stop offset="0.707" stop-color="#FFC640"/>
<stop offset="1" stop-color="#FFA02B"/>
</linearGradient>
<linearGradient id="paint5_linear_772_3829" x1="9.44278" y1="15.3536" x2="17.7941" y2="4.39935" gradientUnits="userSpaceOnUse">
<stop stop-color="#FFC64F"/>
<stop offset="0.277" stop-color="#E06919"/>
<stop offset="0.707" stop-color="#FFC640"/>
<stop offset="1" stop-color="#FFA02B"/>
</linearGradient>
<linearGradient id="paint6_linear_772_3829" x1="6.72119" y1="6.97266" x2="17.2254" y2="6.97266" gradientUnits="userSpaceOnUse">
<stop stop-color="#FFC64F"/>
<stop offset="0.277" stop-color="#E06919"/>
<stop offset="0.707" stop-color="#FFC640"/>
<stop offset="1" stop-color="#FFA02B"/>
</linearGradient>
<linearGradient id="paint7_linear_772_3829" x1="6.72412" y1="10.6094" x2="15.4335" y2="10.6094" gradientUnits="userSpaceOnUse">
<stop stop-color="#FFC64F"/>
<stop offset="0.277" stop-color="#E06919"/>
<stop offset="0.707" stop-color="#FFC640"/>
<stop offset="1" stop-color="#FFA02B"/>
</linearGradient>
<linearGradient id="paint8_linear_772_3829" x1="15.6973" y1="10.959" x2="17.217" y2="10.959" gradientUnits="userSpaceOnUse">
<stop stop-color="#FFC64F"/>
<stop offset="0.277" stop-color="#E06919"/>
<stop offset="0.707" stop-color="#FFC640"/>
<stop offset="1" stop-color="#FFA02B"/>
</linearGradient>
<linearGradient id="paint9_linear_772_3829" x1="7.56348" y1="7.7793" x2="16.3826" y2="7.7793" gradientUnits="userSpaceOnUse">
<stop stop-color="#FFC64F"/>
<stop offset="0.277" stop-color="#E06919"/>
<stop offset="0.707" stop-color="#FFC640"/>
<stop offset="1" stop-color="#FFA02B"/>
</linearGradient>
</defs>
</svg>
