<svg width="22" height="22" viewBox="0 0 22 22" fill="none" xmlns="http://www.w3.org/2000/svg">
<path d="M4.87566 13.2946L4.10987 16.1534L1.31093 16.2126C0.474461 14.6611 0 12.886 0 10.9997C0 9.17565 0.443609 7.45552 1.22994 5.94092H1.23054L3.72238 6.39776L4.81396 8.87465C4.58549 9.54071 4.46097 10.2557 4.46097 10.9997C4.46106 11.8072 4.60732 12.5808 4.87566 13.2946Z" fill="#FBBB00"/>
<path d="M21.8077 8.94531C21.934 9.61073 21.9999 10.2979 21.9999 11.0002C21.9999 11.7878 21.9171 12.556 21.7593 13.297C21.2239 15.8185 19.8247 18.0203 17.8864 19.5784L17.8858 19.5778L14.7472 19.4177L14.303 16.6447C15.5891 15.8904 16.5942 14.71 17.1237 13.297H11.2417V8.94531H21.8077Z" fill="#518EF8"/>
<path d="M17.886 19.5776L17.8866 19.5782C16.0015 21.0934 13.6068 22 11.0001 22C6.81103 22 3.16896 19.6586 1.31104 16.2129L4.87576 13.2949C5.80471 15.7741 8.1963 17.539 11.0001 17.539C12.2052 17.539 13.3343 17.2132 14.3031 16.6445L17.886 19.5776Z" fill="#28B446"/>
<path d="M18.0213 2.53241L14.4578 5.44981C13.4551 4.82307 12.2699 4.46101 11 4.46101C8.13278 4.46101 5.69645 6.30682 4.81405 8.87493L1.23058 5.9412H1.22998C3.06071 2.41153 6.74871 0 11 0C13.669 0 16.1162 0.950726 18.0213 2.53241Z" fill="#F14336"/>
</svg>
