<svg width="17" height="17" viewBox="0 0 17 17" fill="none" xmlns="http://www.w3.org/2000/svg">
<path d="M16.1811 8.09084C16.1811 12.5593 12.5588 16.1816 8.09032 16.1816C7.42145 16.1816 6.77149 16.1003 6.14975 15.9474C3.50024 14.7852 1.64941 12.1388 1.64941 9.05999C1.64941 4.90848 5.01521 1.54297 9.16672 1.54297C11.9667 1.54297 14.4093 3.07403 15.7027 5.34452C16.0123 6.20191 16.1811 7.12676 16.1811 8.09084Z" fill="#FEBC1F"/>
<path d="M15.7032 5.34447C14.4098 3.07398 11.9671 1.54292 9.16718 1.54292C5.01568 1.54292 1.64988 4.90843 1.64988 9.05994C1.64988 12.1387 3.5007 14.7851 6.15021 15.9473C2.61903 15.0781 0 11.8904 0 8.09078C0 3.62234 3.62234 0 8.09078 0C11.5952 0 14.5791 2.22787 15.7032 5.34447Z" fill="#FFD06C"/>
<path d="M8.0907 13.4109C11.029 13.4109 13.4109 11.029 13.4109 8.0907C13.4109 5.15244 11.029 2.77051 8.0907 2.77051C5.15244 2.77051 2.77051 5.15244 2.77051 8.0907C2.77051 11.029 5.15244 13.4109 8.0907 13.4109Z" fill="#FFD06C"/>
<path d="M8.09081 2.24512C4.86246 2.24512 2.24512 4.86218 2.24512 8.09081C2.24512 11.3194 4.86218 13.9365 8.09081 13.9365C11.3194 13.9365 13.9365 11.3194 13.9365 8.09081C13.9365 4.86218 11.3194 2.24512 8.09081 2.24512ZM8.09081 13.411C5.15258 13.411 2.77062 11.029 2.77062 8.09081C2.77062 5.15258 5.15258 2.77062 8.09081 2.77062C11.029 2.77062 13.411 5.15258 13.411 8.09081C13.411 11.029 11.029 13.411 8.09081 13.411Z" fill="#F9A83D"/>
<path d="M10.2634 8.70076C10.2188 8.75692 10.1956 8.82748 10.199 8.89916L10.2783 10.6941C10.2879 10.9072 10.0765 11.0607 9.87701 10.9859L8.19439 10.3557C8.12722 10.3303 8.053 10.3303 7.98583 10.3557L6.30321 10.9859C6.2431 11.0085 6.18186 11.0102 6.12598 10.9961L9.43279 6.31738C9.45311 6.32895 9.47512 6.33798 9.4977 6.34419L11.2294 6.82341C11.4349 6.88014 11.5156 7.12849 11.3827 7.29529L10.2634 8.70076Z" fill="#F9A83D"/>
<path d="M9.43373 6.31678L6.12691 10.9955C5.99709 10.9622 5.89605 10.8425 5.90255 10.6935L5.98213 8.89856C5.98524 8.82688 5.96238 8.75632 5.9175 8.70016L4.79821 7.29468C4.66556 7.12789 4.74628 6.87953 4.95174 6.82281L6.68318 6.34359C6.7526 6.32468 6.81243 6.28094 6.85223 6.22111L7.84283 4.72222C7.96052 4.54442 8.22158 4.54442 8.33926 4.72222L9.32987 6.22111C9.3564 6.26118 9.39196 6.2942 9.43373 6.31678Z" fill="#FEBC1F"/>
<path d="M10.0247 3.7635V3.72964C10.0402 3.68279 10.0715 3.65569 10.1181 3.63707C10.6281 3.43443 10.9848 3.07713 11.1883 2.56772C11.2052 2.52539 11.2273 2.49237 11.271 2.47656H11.3252C11.3667 2.49293 11.3895 2.52398 11.4059 2.56546C11.6066 3.07177 11.9602 3.42766 12.4645 3.63255C12.517 3.65372 12.5574 3.67968 12.5715 3.73669V3.75024C12.5608 3.81204 12.5184 3.83857 12.4631 3.86087C11.9616 4.06492 11.6094 4.41911 11.4079 4.92175C11.3907 4.96493 11.3681 4.99851 11.3249 5.01686H11.2707C11.2287 4.99936 11.2052 4.96803 11.1883 4.92542C10.9865 4.41967 10.6326 4.06379 10.128 3.85946C10.0792 3.8397 10.0408 3.81543 10.0244 3.76378L10.0247 3.7635Z" fill="white"/>
</svg>
