<svg width="40" height="34" viewBox="0 0 40 34" fill="none" xmlns="http://www.w3.org/2000/svg">
<path d="M12.3946 4.37891V1.52109C12.3946 0.682031 11.7117 0 10.8735 0H7.96096C7.1219 0 6.43987 0.682813 6.43987 1.52109V7.575L7.68909 6.90391L7.6883 1.52109C7.6883 1.37109 7.81018 1.24844 7.96096 1.24844H10.8735C11.0235 1.24844 11.1461 1.37031 11.1461 1.52109V5.04922L12.3946 4.37891Z" fill="#858585"/>
<path d="M17.4672 32.3766L19.9977 29.8461L19.1149 28.9625L15.7008 32.3766H17.4672Z" fill="#858585"/>
<path fill-rule="evenodd" clip-rule="evenodd" d="M38.507 10.2297L21.3391 1.01719C20.4867 0.560938 19.4727 0.567188 18.6344 1.03047L12.3946 4.37891L11.1461 5.04922L7.68909 6.90391L6.43987 7.575L1.49065 10.2305C0.114867 10.9711 -0.40232 12.6914 0.337523 14.0656C1.07659 15.4391 2.7969 15.9562 4.17268 15.2187L4.78284 14.8914V31.7359C4.78284 32.7773 5.63049 33.625 6.6719 33.625H33.3266C34.3672 33.625 35.2133 32.7773 35.2133 31.7359V14.8906L35.8258 15.2195C36.2362 15.4405 36.6949 15.5562 37.161 15.5562C38.1711 15.5562 39.15 15.0156 39.661 14.0656C40.3985 12.6891 39.8813 10.9695 38.507 10.2297ZM13.7508 16.1656L12.3024 14.7156C13.3906 14.6164 14.4883 15.0023 15.2719 15.7836C16.1883 16.7 16.5563 18.0016 16.2555 19.2656C16.2055 19.4766 16.268 19.6984 16.4211 19.8516L28.9477 32.3766H24.2945L20.461 28.543L20.4541 28.5352C20.4496 28.53 20.4451 28.5247 20.4399 28.5195C20.4346 28.5143 20.4294 28.5098 20.4242 28.5053L20.4164 28.4984L17.2516 25.3336L17.2463 25.3276C17.2412 25.3218 17.2363 25.3162 17.2305 25.3109C17.2235 25.3039 17.2149 25.2969 17.2078 25.2898L14.0953 22.1773C14.0201 22.102 13.9268 22.0472 13.8244 22.018C13.722 21.9889 13.6138 21.9865 13.5102 22.0109C12.2469 22.3102 10.9453 21.9414 10.0297 21.0258C9.24533 20.2414 8.8594 19.1414 8.96018 18.0555L10.411 19.5062C10.8555 19.9508 11.4477 20.1953 12.0797 20.1953H12.0821C12.7141 20.1945 13.3071 19.9492 13.7508 19.5039C14.6711 18.5836 14.6711 17.0859 13.7508 16.1656ZM23.2071 24.8703L20.8813 22.5445L19.9985 21.6617L17.5414 19.2055C17.8016 17.6289 17.2969 16.0422 16.1555 14.9008C14.9219 13.6687 13.1047 13.1727 11.4086 13.6078C11.0805 13.6945 10.8336 13.9398 10.7469 14.2641C10.6555 14.5922 10.7461 14.9297 10.9899 15.1687L12.868 17.0492C13.3016 17.4828 13.3016 18.1883 12.8672 18.6227C12.6586 18.832 12.3797 18.9477 12.0813 18.9477C11.7836 18.9477 11.5039 18.8328 11.2953 18.6242L9.4133 16.7422C9.1758 16.5047 8.83987 16.4141 8.51487 16.5008C8.51174 16.5016 8.5094 16.5023 8.50705 16.5031C8.1844 16.5937 7.94065 16.8406 7.85393 17.168C7.41799 18.8594 7.91409 20.6766 9.14846 21.9109C10.2883 23.0508 11.8742 23.5562 13.4508 23.2984L15.9078 25.7555L16.7883 26.6367L19.1149 28.9625L19.9977 29.8461L22.5289 32.3766H17.4672H15.7008H11.0492L9.28518 32.3781H6.6719C6.31877 32.3781 6.03205 32.0906 6.03205 31.7383V14.2211L19.9992 6.72734L33.9641 14.2203V31.7367C33.9641 32.0898 33.6781 32.3766 33.3266 32.3766H30.7149L24.0906 25.7531L23.2071 24.8703ZM38.561 13.4734C38.1477 14.2422 37.1852 14.5312 36.4164 14.118L20.2946 5.46875C20.2024 5.41953 20.1008 5.39453 19.9992 5.39453C19.8977 5.39453 19.7961 5.41953 19.7039 5.46875L5.1219 13.2922C5.11409 13.2961 5.10705 13.3 5.10002 13.3039L3.58205 14.1187C2.81252 14.5312 1.8508 14.2422 1.43752 13.4742C1.02424 12.7062 1.3133 11.7445 2.08205 11.3305L12.0602 5.97578L12.0668 5.97227L12.0735 5.96875L19.2313 2.12734C19.4632 1.99865 19.7238 1.93035 19.9891 1.92871C20.2543 1.92707 20.5157 1.99215 20.7492 2.11797L37.9156 11.3305C38.6836 11.743 38.9727 12.7055 38.561 13.4734Z" fill="#858585"/>
<path d="M23.7406 19.2664C23.4414 18.0016 23.8102 16.6992 24.7258 15.7836C25.5094 15 26.607 14.6148 27.6953 14.7148L26.2453 16.1648C25.8008 16.6094 25.5555 17.2023 25.5555 17.8344C25.5555 18.4664 25.8 19.0594 26.2453 19.5039C26.6906 19.9492 27.2844 20.1953 27.9164 20.1953C28.5508 20.1977 29.1422 19.9508 29.5867 19.5055L31.036 18.0547C31.136 19.1445 30.7508 20.243 29.968 21.0258C29.0524 21.9414 27.75 22.3102 26.4852 22.0109C26.3815 21.9865 26.2734 21.9889 26.171 22.018C26.0685 22.0472 25.9753 22.102 25.9 22.1773L23.2071 24.8703L24.0906 25.7531L26.5469 23.2969C28.1242 23.5547 29.711 23.0492 30.8508 21.9094C32.0828 20.6773 32.5797 18.8602 32.1446 17.1617C32.0594 16.8406 31.8164 16.5937 31.4953 16.5023L31.4923 16.5016L31.4885 16.5004L31.4844 16.4992C31.1633 16.4141 30.8289 16.5023 30.5899 16.7352L30.5836 16.7414L28.7039 18.6234C28.2703 19.057 27.5641 19.0562 27.1289 18.6211C26.6953 18.1875 26.6953 17.482 27.1289 17.0484L29.011 15.1664C29.2485 14.9289 29.3391 14.593 29.2524 14.268L29.25 14.2594C29.1594 13.9352 28.9102 13.6914 28.5821 13.6062C26.8914 13.1727 25.0742 13.6687 23.8422 14.9016C22.7024 16.0414 22.1961 17.6289 22.4547 19.2055L19.9985 21.6617L20.8813 22.5445L23.5742 19.8516C23.6495 19.7762 23.7042 19.683 23.7333 19.5806C23.7625 19.4782 23.765 19.37 23.7406 19.2664Z" fill="#858585"/>
<path d="M11.0492 32.3766L16.7883 26.6367L15.9078 25.7555L9.28518 32.3781L11.0492 32.3766Z" fill="#858585"/>
</svg>
