<svg width="24" height="24" viewBox="0 0 24 24" fill="none" xmlns="http://www.w3.org/2000/svg">
<path d="M12 8.88867V11.9998L13.9444 13.9442" stroke="#99A1AF" stroke-width="1.5" stroke-linecap="round" stroke-linejoin="round"/>
<path d="M7.02544 7.02544L6.49511 6.49511L6.49511 6.49511L7.02544 7.02544ZM6.04048 8.0104L5.29049 8.01417C5.29256 8.42544 5.62544 8.75833 6.03671 8.7604L6.04048 8.0104ZM8.01659 8.77034C8.43079 8.77243 8.76826 8.43833 8.77034 8.02412C8.77243 7.60992 8.43833 7.27245 8.02412 7.27036L8.02035 8.02035L8.01659 8.77034ZM6.78052 6.02676C6.77844 5.61255 6.44097 5.27846 6.02676 5.28054C5.61255 5.28262 5.27846 5.62009 5.28054 6.0343L6.03053 6.03053L6.78052 6.02676ZM5.80804 11.0776C5.86429 10.6672 5.57721 10.2889 5.16684 10.2327C4.75646 10.1764 4.37818 10.4635 4.32193 10.8739L5.06499 10.9757L5.80804 11.0776ZM16.9248 7.07519L17.4551 6.54486C14.4199 3.50963 9.51292 3.47731 6.49511 6.49511L7.02544 7.02544L7.55577 7.55577C9.97777 5.13378 13.935 5.146 16.3945 7.60552L16.9248 7.07519ZM7.07519 16.9248L6.54486 17.4551C9.58009 20.4904 14.4871 20.5227 17.5049 17.5049L16.9746 16.9746L16.4442 16.4442C14.0222 18.8662 10.065 18.854 7.60552 16.3945L7.07519 16.9248ZM16.9746 16.9746L17.5049 17.5049C20.5227 14.4871 20.4904 9.58009 17.4551 6.54486L16.9248 7.07519L16.3945 7.60552C18.854 10.065 18.8662 14.0222 16.4442 16.4442L16.9746 16.9746ZM7.02544 7.02544L6.49511 6.49511L5.51015 7.48007L6.04048 8.0104L6.57081 8.54073L7.55577 7.55577L7.02544 7.02544ZM6.04048 8.0104L6.03671 8.7604L8.01659 8.77034L8.02035 8.02035L8.02412 7.27036L6.04425 7.26041L6.04048 8.0104ZM6.04048 8.0104L6.79047 8.00664L6.78052 6.02676L6.03053 6.03053L5.28054 6.0343L5.29049 8.01417L6.04048 8.0104ZM5.06499 10.9757L4.32193 10.8739C4.00288 13.2016 4.74594 15.6562 6.54486 17.4551L7.07519 16.9248L7.60552 16.3945C6.14988 14.9388 5.55044 12.9569 5.80804 11.0776L5.06499 10.9757Z" fill="#99A1AF"/>
</svg>
