<svg width="24" height="24" viewBox="0 0 24 24" fill="none" xmlns="http://www.w3.org/2000/svg">
<path d="M4.16162 11.0781V13.8446C4.16162 17.3222 4.16162 19.061 5.24199 20.1414C6.32235 21.2218 8.06118 21.2218 11.5388 21.2218H12.461C15.9386 21.2218 17.6774 21.2218 18.7578 20.1414C19.8382 19.061 19.8382 17.3222 19.8382 13.8446V11.0781" stroke="#99A1AF" stroke-width="1.5"/>
<path d="M9.69439 2.77832H14.3051L14.9061 8.78831C15.0781 10.5078 13.7278 11.9998 11.9998 11.9998C10.2717 11.9998 8.92145 10.5078 9.09339 8.78831L9.69439 2.77832Z" stroke="#99A1AF" stroke-width="1.5"/>
<path d="M4.00457 5.86875C4.16879 5.04767 4.2509 4.63713 4.41784 4.30433C4.76962 3.60308 5.40259 3.08417 6.1592 2.87676C6.51828 2.77832 6.93695 2.77832 7.77428 2.77832H9.69448L9.02636 9.45955C8.88215 10.9016 7.66867 11.9998 6.21939 11.9998C4.43923 11.9998 3.10408 10.3712 3.4532 8.62561L4.00457 5.86875Z" stroke="#99A1AF" stroke-width="1.5"/>
<path d="M19.9951 5.86875C19.8309 5.04767 19.7488 4.63713 19.5818 4.30433C19.23 3.60308 18.5971 3.08417 17.8405 2.87676C17.4814 2.77832 17.0627 2.77832 16.2254 2.77832H14.3052L14.9733 9.45955C15.1175 10.9016 16.331 11.9998 17.7803 11.9998C19.5604 11.9998 20.8956 10.3712 20.5465 8.62561L19.9951 5.86875Z" stroke="#99A1AF" stroke-width="1.5"/>
<path d="M9.69482 20.7603V17.9939C9.69482 17.132 9.69482 16.7011 9.88014 16.3801C10.0015 16.1698 10.1762 15.9952 10.3864 15.8738C10.7074 15.6885 11.1383 15.6885 12.0002 15.6885C12.8621 15.6885 13.293 15.6885 13.614 15.8738C13.8242 15.9952 13.9989 16.1698 14.1203 16.3801C14.3056 16.7011 14.3056 17.132 14.3056 17.9939V20.7603" stroke="#99A1AF" stroke-width="1.5" stroke-linecap="round"/>
</svg>
