<svg width="34" height="33" viewBox="0 0 34 33" fill="none" xmlns="http://www.w3.org/2000/svg">
<path d="M16.9928 2.95753C16.9714 2.87363 16.9337 2.79478 16.8818 2.72547C16.8299 2.65616 16.7649 2.59775 16.6904 2.55358C16.616 2.50941 16.5335 2.48034 16.4478 2.46804C16.3621 2.45573 16.2749 2.46043 16.191 2.48187C14.7692 2.84499 13.5865 3.73717 12.8609 4.99405C12.6788 5.30937 12.7869 5.71251 13.1022 5.89453C13.1772 5.93786 13.2599 5.96599 13.3458 5.97731C13.4316 5.98863 13.5188 5.98292 13.6025 5.96052C13.6861 5.93811 13.7645 5.89943 13.8332 5.84671C13.9018 5.79399 13.9594 5.72824 14.0027 5.65324C14.5493 4.70641 15.4423 4.03377 16.5172 3.75932C16.8699 3.66933 17.0829 3.31036 16.9928 2.95753ZM18.4308 2.38674C18.4209 2.38496 18.411 2.38331 18.4004 2.38173C18.041 2.32661 17.7069 2.57311 17.6512 2.93241C17.5955 3.29104 17.8424 3.62727 18.2001 3.68482C18.2376 3.69137 18.2756 3.69465 18.3137 3.69464C18.6261 3.69464 18.9036 3.47148 18.9614 3.15326C19.0265 2.79502 18.789 2.45187 18.4308 2.38674Z" fill="#858585"/>
<path d="M30.3895 19.2851C29.9042 19.1465 29.3794 19.0237 28.8231 18.9174C28.7915 18.9092 28.7594 18.9034 28.727 18.8999C27.1052 18.5976 25.222 18.4349 23.2587 18.4349C22.171 18.4349 21.1086 18.4855 20.1006 18.5812L24.1741 11.526C25.1966 9.75487 25.4664 7.68466 24.9336 5.69653C24.4009 3.70853 23.1321 2.05056 21.361 1.02811C17.6911 -1.09062 12.9818 0.171074 10.8632 3.84085L5.9462 12.357L5.94481 12.3591L5.94369 12.3613L1.02666 20.8778C0.00408542 22.6489 -0.265618 24.7191 0.267064 26.7072C0.799747 28.6952 2.06856 30.3533 3.83966 31.3756C5.00166 32.0471 6.32012 32.4005 7.66218 32.4C8.22453 32.4 8.79031 32.3383 9.34989 32.2133C10.8391 31.8808 12.1779 31.1262 13.2161 30.0506C13.7378 30.6452 14.7088 31.1477 16.1221 31.5515C18.0372 32.0986 20.5715 32.3999 23.2584 32.3999C25.9453 32.3999 28.4797 32.0986 30.3947 31.5515C32.6236 30.9147 33.7538 30.0328 33.7538 28.9303V21.9085L33.7541 21.9045C33.7541 20.8043 32.6221 19.923 30.3895 19.2851ZM23.2588 19.7533C24.2965 19.7533 25.3075 19.8007 26.2643 19.8905L22.077 21.7386L17.8897 23.5867C17.3929 23.4903 16.9238 23.3801 16.4901 23.2563C14.5144 22.6917 14.0818 22.089 14.0818 21.9044C14.0818 21.7199 14.5145 21.1172 16.4902 20.5526C18.2943 20.0372 20.6981 19.7533 23.2588 19.7533ZM12.0049 4.50011C13.7601 1.45993 17.6615 0.414671 20.7018 2.16989C22.1678 3.01631 23.2185 4.39001 23.6601 6.03783C24.1017 7.68572 23.8787 9.40065 23.0324 10.8668L18.4607 18.785C18.4428 18.7877 18.4253 18.7908 18.4075 18.7937L7.41628 12.4475L12.0049 4.50011ZM12.7633 21.9011L12.7631 21.9046V28.5532C10.851 31.0853 7.263 31.8298 4.49899 30.2339C3.03286 29.3874 1.9822 28.0137 1.54062 26.3659C1.09905 24.718 1.32208 23.0031 2.16844 21.537L6.75709 13.5892L16.4636 19.1936C16.3498 19.2234 16.2375 19.2537 16.1277 19.2851C13.8976 19.9223 12.7657 20.8025 12.7633 21.9011ZM32.4356 28.9304C32.4356 29.1159 32.0039 29.7207 30.0328 30.2838C28.2322 30.7983 25.8265 31.0816 23.2586 31.0816C20.6908 31.0816 18.285 30.7983 16.4844 30.2838C14.5132 29.7207 14.0816 29.1159 14.0816 28.9304V23.7047C14.6076 24.0112 15.2904 24.2847 16.1279 24.524C16.6451 24.6718 17.2083 24.801 17.8056 24.9119C17.8346 24.9192 17.864 24.9247 17.8938 24.928C19.4921 25.2181 21.3368 25.3742 23.2587 25.3742C25.9384 25.3742 28.4709 25.0723 30.3895 24.5241C31.2269 24.2848 31.9095 24.0114 32.4356 23.7049V28.9304ZM32.4356 21.9046V21.9064C32.4329 22.0931 31.9969 22.6936 30.0274 23.2565C28.2233 23.7718 25.8194 24.0557 23.2587 24.0557C22.2657 24.0557 21.2969 24.0126 20.3769 23.9302L28.7308 20.2431C29.1892 20.3346 29.624 20.4376 30.0273 20.5528C31.9996 21.1162 32.434 21.7178 32.4357 21.9036L32.4356 21.9046Z" fill="#858585"/>
<path d="M13.2158 30.0509C13.7376 30.6455 14.7085 31.1481 16.1218 31.5518C18.0369 32.0989 20.5713 32.4003 23.2582 32.4003C25.9451 32.4003 28.4795 32.0989 30.3945 31.5518C32.6234 30.915 33.7536 30.0331 33.7536 28.9307L32.4354 28.9307C32.4354 29.1162 32.0037 29.7211 30.0326 30.2842C28.232 30.7986 25.8262 31.082 23.2584 31.082C20.6906 31.082 18.2847 30.7986 16.4842 30.2842C14.513 29.7211 14.0814 29.1162 14.0814 28.9307L13.2158 30.0509Z" fill="#858585"/>
</svg>
