<svg width="36" height="27" viewBox="0 0 36 27" fill="none" xmlns="http://www.w3.org/2000/svg">
<path d="M24.0846 10.9861L15.5448 15.9151C16.2746 15.4759 16.7212 14.5455 16.7212 13.2644C16.7212 13.0712 16.7137 12.8706 16.6914 12.6692C16.4536 10.1523 14.688 7.27053 12.5516 6.04217C11.4719 5.42391 10.4813 5.3273 9.74414 5.67731L18.1955 0.785441C21.0171 -0.830071 24.6211 0.122591 26.2366 2.94491C26.3109 3.07867 26.3853 3.21986 26.4521 3.35362C27.0913 4.69015 27.2025 6.21866 26.7636 7.63365C26.3247 9.04863 25.3679 10.2459 24.0846 10.9861Z" fill="#F45170"/>
<path d="M24.0847 10.9852L15.5449 15.9142C16.2747 15.4751 16.7213 14.5447 16.7213 13.2636C16.7213 13.0704 16.7138 12.8697 16.6915 12.6683C21.3895 9.87576 25.4104 6.42849 26.453 3.35352C27.0918 4.69006 27.2028 6.21845 26.7638 7.63328C26.3247 9.04811 25.368 10.2452 24.0847 10.9852Z" fill="#DF3260"/>
<path d="M17.191 12.9967C17.191 14.1129 16.8492 14.9541 16.2829 15.4534C16.2755 15.4534 16.2755 15.4534 16.2755 15.4609C16.2458 15.4757 16.2235 15.498 16.2012 15.5203L16.1194 15.5723C16.0897 15.6021 16.0526 15.6243 16.0154 15.6466L15.814 15.7581L9.41811 19.4513L8.82957 19.7939C7.47777 20.5741 5.87155 20.7858 4.36379 20.3824C2.85603 19.979 1.57007 18.9936 0.78842 17.6426C0.714109 17.5089 0.639799 17.3744 0.579607 17.2406C-0.0627627 15.9036 -0.175721 14.373 0.263398 12.9562C0.702518 11.5393 1.66122 10.3409 2.94714 9.60148C2.94714 9.60148 9.99922 5.52034 10.1107 5.45346C10.1404 5.4386 10.1627 5.42373 10.1776 5.4163L10.2073 5.40144C10.2593 5.37915 10.3113 5.35685 10.3633 5.34199C11.0856 5.07447 12.0086 5.19337 13.014 5.77374C15.1437 7.00952 16.9153 9.87643 17.1613 12.3933C17.1836 12.594 17.191 12.7946 17.191 12.996V12.9967Z" fill="#FFD06C"/>
<path d="M17.1905 12.997C17.1905 14.1131 16.8487 14.9543 16.2824 15.4537C16.275 15.4537 16.275 15.4537 16.275 15.4611C16.2453 15.476 16.223 15.4983 16.2007 15.5205L16.1189 15.5726C16.0892 15.6023 16.0521 15.6246 16.0149 15.6469L15.8135 15.7583L9.4176 19.4516L8.82906 19.7941C7.47726 20.5743 5.87104 20.786 4.36328 20.3826C2.85553 19.9792 1.56956 18.9938 0.787914 17.6429C0.713604 17.5091 0.639293 17.3746 0.579102 17.2408C0.84662 17.3449 1.15278 17.4266 1.48718 17.4786C4.05609 17.8509 8.44934 16.63 12.9087 14.582H12.9161C14.3638 13.9179 15.7802 13.1877 17.1608 12.3936C17.1831 12.5942 17.1905 12.7948 17.1905 12.9962V12.997Z" fill="#FEBC1F"/>
<path opacity="0.5" d="M1.31728 16.7913C1.31728 16.7913 0.886279 13.4882 4.15223 11.2247C7.41744 8.96046 18.1011 3.0654 18.1011 3.0654C18.1011 3.0654 19.4297 2.33641 18.8776 1.869C18.8776 1.869 18.5596 1.28863 16.7449 2.4018C15.0328 3.44958 4.29193 9.4836 4.29193 9.4836C4.29193 9.4836 -0.582099 11.7761 1.31728 16.7913Z" fill="white"/>
<path d="M18.011 18.1973L18.0088 21.8563C18.0125 23.156 18.8686 24.4527 20.5792 25.447C24.0109 27.4415 29.5975 27.4482 33.0634 25.447C34.8015 24.4438 35.6694 23.124 35.6657 21.8058L35.668 18.1475C35.6717 19.465 34.8037 19.8611 33.0649 20.8643C29.5998 22.8654 24.0131 22.8744 20.5807 20.8791C18.8708 19.8856 18.0147 19.4969 18.011 18.1973Z" fill="#C9CEE2"/>
<path d="M20.6173 14.5622C17.3603 16.4437 17.1619 19.4295 20.0384 21.4374L32.4862 14.2367C29.0308 12.5536 23.8736 12.662 20.6173 14.5622ZM33.6083 14.8877L21.1784 22.0883C24.6338 23.7901 29.791 23.6808 33.0651 21.7807C36.34 19.8992 36.5213 16.8777 33.6083 14.8877Z" fill="#E3E7F0"/>
<path d="M32.9366 14.4756C32.7903 14.3954 32.6454 14.3158 32.4863 14.2363C32.6454 14.3158 32.7903 14.3961 32.9366 14.4756Z" fill="#B0B8CF"/>
<path d="M32.9372 14.4756C32.7908 14.3954 32.6459 14.3158 32.4868 14.2363L20.0391 21.437C20.1654 21.5359 20.3125 21.6198 20.4611 21.7045L32.9372 14.4756Z" fill="#B0B8CF"/>
<path d="M33.1025 14.5623C33.2838 14.6708 33.4465 14.7793 33.6093 14.8878C33.4458 14.7793 33.2838 14.6708 33.1025 14.5623Z" fill="#C9CEE2"/>
<path d="M33.1017 14.5623C33.0482 14.5326 32.9902 14.5036 32.9367 14.4746L20.46 21.705C20.5031 21.7288 20.5372 21.757 20.5811 21.7808C20.7802 21.8901 20.9794 21.9986 21.1785 22.0885L33.6085 14.8878C33.445 14.7793 33.283 14.6708 33.1017 14.5623Z" fill="#C9CEE2"/>
<path d="M11.6551 12.393C10.9699 12.393 10.3598 12.6605 9.92064 13.1123C9.68959 13.3378 9.50666 13.6079 9.3829 13.9061C9.25914 14.2043 9.19711 14.5246 9.20057 14.8474C9.19998 14.1966 8.9412 13.5727 8.48102 13.1125C8.02084 12.6523 7.39688 12.3935 6.74609 12.393C7.41786 12.393 8.04207 12.1113 8.48793 11.6796C8.91968 11.2337 9.20132 10.6095 9.20132 9.93848C9.20132 10.6102 9.46883 11.2337 9.92064 11.6796C10.3823 12.1364 11.0056 12.3927 11.6551 12.393Z" fill="white"/>
</svg>
