<svg width="36" height="32" viewBox="0 0 36 32" fill="none" xmlns="http://www.w3.org/2000/svg">
<path d="M9.85128 8.76286C9.86295 12.9114 5.39936 17.6784 2.8204 16.0855L1.68262 15.4364C-2.56216 13.0076 3.16319 3.00104 7.40798 5.42975L8.65516 6.14451C9.3918 6.56753 9.84399 7.47921 9.85128 8.76286Z" fill="#1D2943"/>
<path d="M8.65516 6.14451C7.71212 5.64126 6.67134 5.8907 5.75237 6.42896C3.4914 7.73448 1.66804 10.8925 1.67533 13.4817C1.67533 14.909 2.27047 15.7813 2.86416 16.1147L1.68262 15.4364C-2.56216 13.0076 3.16319 3.00104 7.40798 5.42975L8.65516 6.14451Z" fill="#1D2943"/>
<path d="M8.66732 12.812C10.2651 10.0591 10.2676 7.07722 8.6731 6.15178C7.07855 5.22634 4.49069 6.7078 2.89296 9.46072C1.29522 12.2136 1.29263 15.1955 2.88718 16.121C4.48173 17.0464 7.06958 15.565 8.66732 12.812Z" fill="#4C5C75"/>
<path d="M31.4754 27.7457C31.986 28.3146 31.8474 29.27 31.3077 29.7952C30.7534 30.3276 29.9146 30.4589 29.1707 30.2984C28.3538 30.1307 27.7631 29.7222 27.1285 29.3138C27.4859 30.3932 26.6034 31.6769 25.4802 31.7425C24.8523 31.787 24.942 31.7936 16.2321 28.4969C15.9914 28.847 15.4809 28.9418 14.8683 28.8835C13.6503 28.7741 12.0165 28.0812 11.2507 27.7019L11.2434 27.6946C7.01321 25.6379 4.47509 21.6265 4.28546 19.7958C4.1323 18.3736 4.796 17.4546 3.93538 15.9959C3.4613 15.201 2.62985 14.3768 2.62985 13.5526C2.22142 11.102 4.08854 8.31595 6.12341 7.39697C6.74336 7.12055 7.22983 6.99729 7.93948 7.06877C8.22392 7.13441 8.33114 7.01334 9.86495 7.61578C11.7394 8.367 13.6284 9.12552 15.335 10.2195C18.1722 12.0502 20.3602 14.7561 23.1536 16.6597C25.9032 18.5414 31.4608 20.7513 31.3806 23.0195C31.3587 23.6176 30.7169 24.1719 30.1772 24.0771C31.0889 24.5293 31.9203 25.1346 32.6132 25.8713C34.4512 27.8551 32.0808 28.7887 31.4754 27.7457Z" fill="#F4D6D4"/>
<path d="M31.4971 27.7149C31.4971 27.7149 29.8058 25.4999 21.1944 22.3301L31.4971 27.7149ZM27.1364 29.3187C27.1364 29.3187 25.5136 26.7062 18.1953 24.012L27.1364 29.3187ZM30.0931 24.0521C30.0931 24.0521 28.9014 22.492 22.8339 20.2588L30.0931 24.0521Z" fill="#F5C9C6"/>
<path d="M16.2184 28.4992L16.1753 28.4904C16.4962 24.8656 11.6038 23.2005 11.3048 22.9015C11.0189 23.102 10.7855 23.1225 10.5958 23.2005C10.485 23.2063 10.0124 23.3114 9.55287 23.2603L9.52734 23.2268C9.99777 22.8767 10.5871 22.7221 11.1684 22.6965C10.9372 22.3552 10.741 22.0044 10.6039 21.6113C10.4587 21.1496 10.4069 20.5515 10.7322 20.1504L10.7665 20.1759C10.3391 20.9359 11.0028 22.0241 11.5695 22.6878C11.7883 22.7994 13.7532 23.4879 14.9967 24.7985C16.2052 26.0515 16.486 27.4679 16.2184 28.4992Z" fill="#F5C9C6"/>
<path d="M14.869 28.8837C13.651 28.7743 12.0172 28.0815 11.2514 27.7022L11.2441 27.6949C11.3098 27.5272 11.4921 27.1187 11.6745 26.951C12.2579 26.3675 13.7239 26.6301 14.4022 27.1041C14.8544 27.4323 14.8544 27.7533 14.869 28.0596C14.8909 28.3367 14.9055 28.6066 14.869 28.8837Z" fill="#F3F1FC"/>
<path d="M33.6348 10.8122L25.8454 24.3051C25.6485 24.6479 25.1803 25.0789 24.8389 24.8813L14.1394 18.7548C10.6532 16.7775 12.9929 8.71901 17.8007 5.95479C20.3826 4.46693 21.7647 5.69952 21.8705 5.7214C22.2089 5.88112 22.6677 5.43331 22.8478 5.07228C24.0534 2.893 25.4829 1.51673 26.8082 0.747268C28.2231 -0.0695982 29.638 -0.244641 30.6737 0.360715L33.6421 2.08926C35.7135 3.31456 35.7207 7.20197 33.6348 10.8122Z" fill="#DF3260"/>
<path d="M33.6435 2.08843C32.602 1.47797 31.1929 1.65155 29.778 2.47207C28.0852 3.44355 26.7439 5.10354 25.8177 6.80073C25.6222 7.16175 25.1379 7.63947 24.7922 7.4265L21.8311 5.70671C22.1884 5.91311 22.6589 5.4456 22.8514 5.07583C24.014 2.94687 25.4508 1.53996 26.8117 0.747165C28.2267 -0.0682422 29.6358 -0.246932 30.6773 0.36353L33.6435 2.08843Z" fill="#E93565"/>
<path d="M17.1024 20.4758L14.1369 18.7523C10.6689 16.7831 12.9824 8.73403 17.8004 5.95231C19.1767 5.15733 20.5537 4.96624 21.6076 5.56576L24.5724 7.2892C23.5192 6.68968 22.1415 6.88077 20.7652 7.67575C15.8596 10.5078 13.6891 18.5372 17.1024 20.4758Z" fill="#DF3260"/>
<path d="M29.7789 2.47028C31.1938 1.65342 32.6037 1.47764 33.6423 2.08811C35.7143 3.31122 35.7187 7.20081 33.6371 10.8096L25.8456 24.3025C25.6435 24.6518 25.1855 25.0814 24.8383 24.8838L17.1029 20.4756C13.6349 18.5057 15.9476 10.4566 20.7664 7.67562C22.1419 6.88063 23.5197 6.68954 24.5728 7.28906C24.834 7.45317 24.9609 7.56913 25.2876 7.3795C25.858 7.0513 25.8281 6.49481 27.0016 4.97923C27.8527 3.87792 28.8169 3.02604 29.7789 2.47028Z" fill="#F45170"/>
<path d="M24.8998 10.1464L26.1397 13.3432L27.2395 11.2025C27.3591 10.9692 27.5532 10.9261 27.6224 11.0144L28.7405 12.4381C29.8666 10.3623 29.8922 10.0983 30.1467 10.0939L31.3487 10.0874L32.3333 9.49879C32.466 9.42294 32.571 9.4842 32.5718 9.63664C32.5676 9.71897 32.544 9.79914 32.5028 9.87053C32.4616 9.94193 32.404 10.0025 32.3347 10.0473L31.2932 10.6679C31.2615 10.6873 31.2253 10.6981 31.1882 10.6993L30.1 10.7051L28.8864 12.9924C28.7646 13.2206 28.5772 13.2637 28.5042 13.1747L27.392 11.7576L26.2396 14.0018C26.1353 14.2045 25.9019 14.3314 25.8334 14.152L24.7211 11.2828L23.6161 17.119C23.5571 17.4166 23.2486 17.5982 23.164 17.4202L21.9627 14.8726C21.0226 17.0293 20.9424 17.6062 20.628 17.542L19.4961 17.3225L18.3072 18.0073C17.9936 18.1882 17.99 17.6427 18.3058 17.4603C19.5544 16.7565 19.5902 16.6828 19.6996 16.704L20.6907 16.8943C21.8212 14.2731 21.7673 14.125 22.0058 13.9872C22.1122 13.9361 22.1888 13.9544 22.2231 14.0288L23.3208 16.359L24.4454 10.436C24.5008 10.1341 24.8218 9.94734 24.8998 10.1464ZM18.9797 11.1544C18.7474 11.1542 18.5173 11.1998 18.3026 11.2886C18.088 11.3775 17.8929 11.5077 17.7286 11.672C17.5644 11.8363 17.4341 12.0313 17.3453 12.246C17.2565 12.4607 17.2109 12.6907 17.211 12.9231C17.2112 12.6907 17.1656 12.4607 17.0768 12.246C16.988 12.0313 16.8577 11.8363 16.6934 11.672C16.5292 11.5077 16.3341 11.3775 16.1194 11.2886C15.9048 11.1998 15.6747 11.1542 15.4424 11.1544C15.6747 11.1546 15.9048 11.109 16.1194 11.0202C16.3341 10.9313 16.5292 10.8011 16.6934 10.6368C16.8577 10.4725 16.988 10.2775 17.0768 10.0628C17.1656 9.84814 17.2112 9.61806 17.211 9.38574C17.2109 9.61806 17.2565 9.84814 17.3453 10.0628C17.4341 10.2775 17.5644 10.4725 17.7286 10.6368C17.8929 10.8011 18.088 10.9313 18.3026 11.0202C18.5173 11.109 18.7474 11.1546 18.9797 11.1544Z" fill="white"/>
</svg>
