<svg width="35" height="36" viewBox="0 0 35 36" fill="none" xmlns="http://www.w3.org/2000/svg">
<path d="M2.06836 10.2275H9.58132V7.98577C9.58132 7.27877 9.0082 6.70566 8.30128 6.70566H3.34847C2.64148 6.70566 2.06836 7.27877 2.06836 7.98577V10.2275Z" stroke="#858585" stroke-width="1.3" stroke-miterlimit="10" stroke-linecap="round" stroke-linejoin="round"/>
<path d="M4.62158 2.56577H7.0281V6.70605H4.62158V2.56577Z" stroke="#858585" stroke-width="1.3" stroke-miterlimit="10" stroke-linecap="round" stroke-linejoin="round"/>
<path d="M12.7017 4.25004L10.8656 2.56556H2.52476C2.46482 2.56557 2.40547 2.55377 2.35009 2.53084C2.29471 2.50791 2.2444 2.47429 2.20201 2.43191C2.15963 2.38952 2.12601 2.33921 2.10308 2.28383C2.08015 2.22845 2.06835 2.1691 2.06836 2.10916V0.983741C2.06835 0.923803 2.08015 0.864451 2.10308 0.809074C2.12601 0.753697 2.15963 0.70338 2.20201 0.660998C2.2444 0.618615 2.29471 0.584998 2.35009 0.562065C2.40547 0.539132 2.46482 0.527333 2.52476 0.527342H11.2622C11.5174 0.527342 11.7632 0.623038 11.9511 0.795444L14.0796 2.74802C14.1688 2.82985 14.2218 2.94377 14.227 3.06471C14.2323 3.18565 14.1892 3.30371 14.1074 3.39293L13.3466 4.22219C13.306 4.26637 13.2572 4.30213 13.2029 4.32744C13.1486 4.35275 13.0898 4.36711 13.0299 4.36969C12.97 4.37228 12.9102 4.36304 12.8539 4.34251C12.7976 4.32198 12.7459 4.29056 12.7017 4.25004Z" stroke="#858585" stroke-width="1.3" stroke-miterlimit="10" stroke-linecap="round" stroke-linejoin="round"/>
<path d="M0.649902 20.4761V11.5606C0.649902 10.8244 1.24714 10.2272 1.98331 10.2272H9.66678C10.4029 10.2272 11.0002 10.8244 11.0002 11.5606V34.1392C11.0002 34.8755 10.4029 35.4727 9.66678 35.4727H1.98331C1.24714 35.4727 0.649902 34.8755 0.649902 34.1392V22.9621" stroke="#858585" stroke-width="1.3" stroke-miterlimit="10" stroke-linecap="round" stroke-linejoin="round"/>
<path d="M11.0002 20.4756H0.649902V16.5349H11.0002V20.4756Z" stroke="#858585" stroke-width="1.3" stroke-miterlimit="10" stroke-linecap="round" stroke-linejoin="round"/>
<path d="M30.1225 32.876H16.9311C16.1261 32.876 15.4736 32.2234 15.4736 31.4185V31.372C15.4736 29.2375 17.204 27.5072 19.3384 27.5072H27.7152C29.8497 27.5072 31.58 29.2375 31.58 31.372V31.4185C31.58 32.2234 30.9275 32.876 30.1225 32.876Z" stroke="#858585" stroke-width="1.3" stroke-miterlimit="10" stroke-linecap="round" stroke-linejoin="round"/>
<path d="M32.8133 32.8759H14.2401C13.656 32.8759 13.1826 33.3494 13.1826 33.9334V34.4064C13.1826 34.9905 13.656 35.4639 14.2401 35.4639H32.8133C33.3973 35.4639 33.8708 34.9905 33.8708 34.4064V33.9334C33.8708 33.3494 33.3973 32.8759 32.8133 32.8759Z" stroke="#858585" stroke-width="1.3" stroke-miterlimit="10" stroke-linecap="round" stroke-linejoin="round"/>
<path d="M13.1826 33.9336V15.2845C13.1826 14.5483 13.7798 13.9511 14.516 13.9511H22.1994C22.9357 13.9511 23.5328 14.5483 23.5328 15.2845V25.1889" stroke="#858585" stroke-width="1.3" stroke-miterlimit="10" stroke-linecap="round" stroke-linejoin="round"/>
<path d="M22.199 13.9521H14.5156V12.2786C14.5156 11.7517 14.9427 11.3246 15.4696 11.3246H21.245C21.7719 11.3246 22.199 11.7517 22.199 12.2786V13.9521Z" stroke="#858585" stroke-width="1.3" stroke-miterlimit="10" stroke-linecap="round" stroke-linejoin="round"/>
<path d="M17.8984 20.9355L18.8167 20.0173" stroke="#858585" stroke-width="1.3" stroke-miterlimit="10" stroke-linecap="round" stroke-linejoin="round"/>
<path d="M21.4459 20.476C21.4459 22.1817 20.0631 23.5645 18.3574 23.5645C16.6518 23.5645 15.269 22.1817 15.269 20.476C15.269 18.7703 16.6518 17.3876 18.3574 17.3876C20.0631 17.3876 21.4459 18.7703 21.4459 20.476Z" stroke="#858585" stroke-width="1.3" stroke-miterlimit="10" stroke-linecap="round" stroke-linejoin="round"/>
<path d="M32.2671 0.52732V2.72754" stroke="#858585" stroke-width="1.3" stroke-miterlimit="10" stroke-linecap="round" stroke-linejoin="round"/>
<path d="M33.3672 1.62793H31.167" stroke="#858585" stroke-width="1.3" stroke-miterlimit="10" stroke-linecap="round" stroke-linejoin="round"/>
<path d="M27.6098 5.425H26.4183V4.23348C26.4183 3.70016 25.9859 3.26774 25.4525 3.26774C24.9192 3.26774 24.4868 3.70016 24.4868 4.23348V5.425H23.2953C22.7619 5.425 22.3296 5.85735 22.3296 6.39074C22.3296 6.92406 22.7619 7.35648 23.2953 7.35648H24.4868V8.548C24.4868 9.08132 24.9192 9.51367 25.4525 9.51367C25.9859 9.51367 26.4183 9.08132 26.4183 8.548V7.35648H27.6098C28.1431 7.35648 28.5755 6.92406 28.5755 6.39074C28.5755 5.85735 28.1431 5.425 27.6098 5.425Z" stroke="#858585" stroke-width="1.3" stroke-miterlimit="10" stroke-linecap="round" stroke-linejoin="round"/>
</svg>
