<svg width="22" height="19" viewBox="0 0 22 19" fill="none" xmlns="http://www.w3.org/2000/svg">
<path d="M16.3958 2.03625e-10H5.51876C5.49006 2.03625e-10 5.46352 0.0153119 5.44916 0.0401759L0.0107641 9.45984C0.00371225 9.47206 0 9.48593 0 9.50004C0 9.51415 0.00371225 9.52802 0.0107641 9.54024L5.44921 18.9599C5.46356 18.9848 5.49011 19.0001 5.51881 19.0001H16.3957C16.4244 19.0001 16.451 18.9848 16.4653 18.9599L21.9038 9.54024C21.9109 9.52802 21.9146 9.51415 21.9146 9.50004C21.9146 9.48593 21.9109 9.47206 21.9038 9.45984L16.4654 0.0401759C16.4583 0.0279584 16.4482 0.0178147 16.436 0.0107628C16.4237 0.00371083 16.4099 -1.0038e-06 16.3958 2.03625e-10Z" fill="url(#paint0_linear_894_1100)"/>
<path d="M16.2049 0.333984H5.71052C5.68282 0.333984 5.65719 0.348768 5.64337 0.372768L0.396149 9.46114C0.389332 9.47293 0.385742 9.4863 0.385742 9.49992C0.385742 9.51354 0.389332 9.52692 0.396149 9.5387L5.64332 18.6271C5.65719 18.6511 5.68277 18.6659 5.71047 18.6659H16.2048C16.2325 18.6659 16.2581 18.6511 16.272 18.6271L21.5191 9.5387C21.533 9.5147 21.533 9.48514 21.5191 9.46114L16.272 0.372768C16.2652 0.360977 16.2554 0.351184 16.2436 0.344376C16.2318 0.337568 16.2185 0.333984 16.2049 0.333984Z" fill="url(#paint1_linear_894_1100)"/>
<path opacity="0.4" d="M21.2256 8.95272L16.5655 0.88128C16.4695 0.714888 16.3313 0.576712 16.1649 0.480641C15.9985 0.384571 15.8098 0.33399 15.6177 0.333984H6.29754C6.10542 0.333989 5.91668 0.384569 5.75031 0.48064C5.58393 0.576712 5.44578 0.714888 5.34973 0.88128L5.25781 1.0404C5.44386 0.901585 5.6672 0.815665 5.90706 0.815665H15.2272C15.4193 0.81567 15.608 0.86625 15.7744 0.962321C15.9408 1.05839 16.079 1.19657 16.175 1.36296L20.8351 9.43435C20.9311 9.60072 20.9817 9.78946 20.9817 9.98158C20.9817 10.1737 20.9311 10.3624 20.8351 10.5288L16.2669 18.4412C16.3842 18.3537 16.49 18.2496 16.5656 18.1187L21.2256 10.0472C21.3217 9.88078 21.3722 9.69205 21.3722 9.49994C21.3722 9.30783 21.3216 9.1191 21.2256 8.95272Z" fill="white"/>
<path opacity="0.3" d="M15.1857 2.11523H6.72992C6.7076 2.11523 6.68696 2.12714 6.67578 2.14648L2.44784 9.46946C2.44235 9.47896 2.43945 9.48973 2.43945 9.50071C2.43945 9.51168 2.44235 9.52246 2.44784 9.53195L6.67582 16.8549C6.68701 16.8743 6.7076 16.8862 6.72997 16.8862H15.1858C15.2081 16.8862 15.2288 16.8743 15.2399 16.8549L19.4678 9.532C19.4733 9.52251 19.4762 9.51173 19.4762 9.50076C19.4762 9.48978 19.4733 9.479 19.4678 9.46951L15.2399 2.14653C15.2344 2.13702 15.2265 2.12912 15.217 2.12362C15.2075 2.11813 15.1967 2.11524 15.1857 2.11523Z" fill="black"/>
<path opacity="0.3" d="M19.2309 9.05875L15.4761 2.55519C15.3987 2.42112 15.2873 2.30979 15.1533 2.23239C15.0192 2.15499 14.8671 2.11425 14.7123 2.11426H7.20259C7.04779 2.11426 6.89571 2.15501 6.76165 2.23241C6.62759 2.3098 6.51626 2.42113 6.43886 2.55519L6.40723 2.61C6.56692 2.34773 6.85036 2.1853 7.15847 2.1853H14.6682C14.9833 2.1853 15.2744 2.35335 15.4319 2.62618L19.1867 9.1298C19.2642 9.26386 19.3049 9.41594 19.3049 9.57075C19.3049 9.72555 19.2642 9.87763 19.1867 10.0117L15.4637 16.4602C15.4672 16.4544 15.4726 16.4501 15.4761 16.4442L19.2309 9.94061C19.3083 9.80656 19.3491 9.65449 19.3491 9.49968C19.3491 9.34488 19.3083 9.1928 19.2309 9.05875Z" fill="url(#paint2_linear_894_1100)"/>
<path d="M15.0718 2.3125H6.84244C6.82069 2.3125 6.80063 2.32412 6.78978 2.34288L2.67513 9.46973C2.6698 9.47898 2.66699 9.48947 2.66699 9.50014C2.66699 9.51081 2.6698 9.5213 2.67513 9.53055L6.78978 16.6573C6.80063 16.6762 6.82074 16.6878 6.84244 16.6878H15.0718C15.0935 16.6878 15.1136 16.6762 15.1245 16.6573L19.239 9.53055C19.2443 9.5213 19.2471 9.51081 19.2471 9.50014C19.2471 9.48947 19.2443 9.47898 19.239 9.46973L15.1245 2.34293C15.1191 2.33368 15.1115 2.326 15.1022 2.32066C15.093 2.31532 15.0825 2.3125 15.0718 2.3125Z" fill="url(#paint3_linear_894_1100)"/>
<path opacity="0.1" d="M14.9718 16.0929H7.66319C7.51254 16.0929 7.36454 16.0532 7.23407 15.9779C7.10361 15.9026 6.99527 15.7942 6.91996 15.6637L3.26567 9.33446C3.19037 9.20398 3.15073 9.05598 3.15073 8.90534C3.15073 8.75469 3.19037 8.60669 3.26567 8.47622L6.62702 2.6543C6.60479 2.68334 6.57878 2.70897 6.56025 2.74113L2.90596 9.07046C2.83066 9.20093 2.79102 9.34891 2.79102 9.49955C2.79102 9.65019 2.83066 9.79818 2.90596 9.92865L6.56025 16.258C6.63557 16.3885 6.74391 16.4968 6.87438 16.5722C7.00484 16.6475 7.15283 16.6871 7.30348 16.6871H14.612C14.7626 16.6871 14.9106 16.6475 15.0411 16.5722C15.1716 16.4968 15.2799 16.3885 15.3553 16.258L15.6481 15.7508C15.4871 15.9615 15.2411 16.0929 14.9718 16.0929Z" fill="#797EC2"/>
<path opacity="0.2" d="M19.0092 9.071L15.3549 2.74167C15.2796 2.6112 15.1712 2.50285 15.0407 2.42752C14.9103 2.35218 14.7623 2.31252 14.6116 2.3125H7.30312C7.15246 2.31251 7.00447 2.35217 6.874 2.42751C6.74354 2.50284 6.6352 2.61119 6.55988 2.74167L6.1875 3.38669C6.31863 3.30989 6.46782 3.26935 6.61979 3.26924H13.9283C14.0789 3.26925 14.2269 3.30891 14.3574 3.38425C14.4879 3.45958 14.5962 3.56793 14.6715 3.6984L18.3258 10.0277C18.4011 10.1582 18.4408 10.3062 18.4408 10.4569C18.4408 10.6075 18.4011 10.7555 18.3258 10.886L15.044 16.5705C15.173 16.4954 15.2803 16.3879 15.355 16.2587L19.0093 9.92928C19.0845 9.79878 19.1241 9.65078 19.1241 9.50013C19.1241 9.34948 19.0845 9.20148 19.0092 9.071Z" fill="#00051C"/>
<path opacity="0.3" d="M11.1821 5.11023L12.8971 7.20341C12.9577 7.27732 13.0363 7.33441 13.1254 7.3692L15.6461 8.35344C15.9735 8.48131 16.1021 8.87688 15.9123 9.17285L14.4516 11.4508C14.4 11.5313 14.3699 11.6237 14.3644 11.7191L14.2072 14.4206C14.1868 14.7717 13.8504 15.0161 13.5102 14.927L10.8924 14.2417C10.7999 14.2175 10.7027 14.2175 10.6103 14.2417L7.99239 14.927C7.65231 15.0161 7.31579 14.7717 7.29539 14.4206L7.13823 11.7191C7.13267 11.6237 7.10265 11.5313 7.05107 11.4508L5.59028 9.17285C5.40049 8.87693 5.52903 8.48136 5.85649 8.35344L8.37721 7.3692C8.46624 7.33443 8.54482 7.27734 8.6054 7.20341L10.3205 5.11023C10.5434 4.83826 10.9593 4.83826 11.1821 5.11023Z" fill="black"/>
<path opacity="0.3" d="M11.3217 4.86999L13.0368 6.96317C13.0973 7.03712 13.1759 7.09422 13.2649 7.12896L15.7857 8.1132C16.1132 8.24107 16.2417 8.63664 16.052 8.93261L14.5911 11.2106C14.5396 11.291 14.5096 11.3834 14.504 11.4788L14.3468 14.1804C14.3264 14.5314 13.9899 14.7758 13.6498 14.6868L11.0319 14.0014C10.9395 13.9772 10.8424 13.9772 10.7499 14.0014L8.13202 14.6868C7.79194 14.7758 7.45541 14.5313 7.43501 14.1804L7.27786 11.4788C7.27227 11.3834 7.24226 11.2911 7.19069 11.2106L5.72991 8.93266C5.54016 8.63674 5.66866 8.24117 5.99616 8.11325L8.51693 7.12901C8.60597 7.09427 8.68457 7.03717 8.74512 6.96322L10.4602 4.87003C10.683 4.59802 11.0989 4.59802 11.3217 4.86999Z" fill="black"/>
<path d="M11.3618 4.67953L13.0768 6.77271C13.1374 6.84662 13.216 6.90371 13.3051 6.9385L15.8258 7.92274C16.1532 8.05061 16.2818 8.44618 16.092 8.7421L14.6313 11.02C14.5796 11.1005 14.5496 11.1929 14.5441 11.2884L14.3869 13.9899C14.3665 14.3409 14.03 14.5853 13.6899 14.4963L11.072 13.811C10.9796 13.7868 10.8824 13.7868 10.79 13.811L8.17208 14.4963C7.832 14.5854 7.49557 14.3409 7.47507 13.9899L7.31792 11.2884C7.31236 11.1929 7.28234 11.1005 7.23075 11.02L5.76997 8.7421C5.58018 8.44618 5.70872 8.05061 6.03618 7.92274L8.5569 6.9385C8.64594 6.90371 8.72455 6.84662 8.78519 6.77271L10.5002 4.67953C10.723 4.40761 11.139 4.40761 11.3618 4.67953Z" fill="url(#paint4_linear_894_1100)"/>
<g opacity="0.3">
<path d="M14.5367 11.2148C14.4852 11.2953 14.4552 11.3877 14.4496 11.4831L14.2924 14.1846C14.2901 14.2243 14.2708 14.2563 14.261 14.2928C14.3286 14.2071 14.3808 14.1083 14.3878 13.989L14.5449 11.2875C14.5485 11.2259 14.578 11.171 14.6012 11.1143L14.5367 11.2148ZM15.8267 7.92183L13.3059 6.93759C13.2168 6.9028 13.1382 6.84567 13.0777 6.7717L11.3626 4.67851C11.1398 4.40664 10.7239 4.40664 10.501 4.67851L8.78602 6.7717C8.72542 6.84566 8.6468 6.90279 8.55773 6.93759L6.03701 7.92183C5.85975 7.99104 5.74777 8.13999 5.70605 8.30784C5.76581 8.22749 5.84002 8.15722 5.94169 8.11743L8.46245 7.13309C8.55151 7.09835 8.63013 7.04127 8.69074 6.96735L10.4057 4.87416C10.6286 4.60219 11.0446 4.60219 11.2673 4.87416L12.9824 6.96735C13.043 7.04126 13.1216 7.09833 13.2106 7.13309L15.7314 8.11743C16.0214 8.23066 16.1414 8.55154 16.0362 8.82965L16.0929 8.74114C16.2826 8.44531 16.1541 8.04975 15.8267 7.92183Z" fill="#A2F3FF"/>
</g>
<g opacity="0.3">
<path opacity="0.3" d="M13.8008 14.1648L11.1829 13.4794C11.0905 13.4552 10.9933 13.4552 10.9008 13.4794L8.28297 14.1648C7.94294 14.2538 7.60646 14.0093 7.58596 13.6584L7.42891 10.9568C7.42331 10.8614 7.39326 10.769 7.34164 10.6885L5.88086 8.41058C5.82019 8.31597 5.80243 8.21233 5.80295 8.10938C5.66831 8.28794 5.63889 8.53643 5.77051 8.74163L7.23129 11.0196C7.28291 11.1001 7.31293 11.1925 7.31846 11.2879L7.47561 13.9895C7.49606 14.3404 7.83249 14.5849 8.17262 14.4959L10.7905 13.8105C10.8829 13.7863 10.9801 13.7863 11.0725 13.8105L13.6904 14.4959C14.0305 14.585 14.367 14.3404 14.3875 13.9895L14.3903 13.9405C14.2618 14.1223 14.0356 14.2263 13.8008 14.1648Z" fill="black"/>
<path d="M14.7422 10.6891C14.6906 10.7696 14.6606 10.8619 14.655 10.9574L14.6533 10.9867L16.0926 8.74218C16.1497 8.65319 16.1696 8.55604 16.1723 8.45898L14.7422 10.6891Z" fill="black"/>
</g>
<path opacity="0.3" d="M11.1761 5.58528L12.616 7.3427C12.6669 7.40478 12.7329 7.45272 12.8077 7.4819L14.924 8.30827C15.199 8.41565 15.3069 8.74771 15.1475 8.99616L13.9211 10.9087C13.8777 10.9763 13.8525 11.0538 13.8479 11.1339L13.716 13.4021C13.6988 13.6967 13.4163 13.902 13.1307 13.8272L10.9329 13.2517C10.8552 13.2314 10.7736 13.2314 10.696 13.2517L8.49812 13.8272C8.21257 13.902 7.93004 13.6967 7.9129 13.4021L7.78095 11.1339C7.77634 11.0538 7.75114 10.9763 7.7078 10.9087L6.4814 8.99616C6.32204 8.74771 6.42994 8.4156 6.70493 8.30827L8.82125 7.4819C8.89601 7.45272 8.962 7.40478 9.01287 7.3427L10.4528 5.58528C10.6399 5.35699 10.9891 5.35699 11.1761 5.58528Z" fill="black"/>
<path d="M11.2923 5.45243L12.7323 7.20985C12.7831 7.27193 12.8491 7.31987 12.9239 7.34905L15.0402 8.17542C15.3152 8.2828 15.4231 8.61486 15.2637 8.86331L14.0373 10.7759C13.9939 10.8434 13.9687 10.921 13.9641 11.0011L13.8322 13.2692C13.815 13.5639 13.5325 13.7692 13.247 13.6944L11.0491 13.1189C10.9714 13.0986 10.8899 13.0986 10.8122 13.1189L8.61433 13.6944C8.32878 13.7692 8.04625 13.5639 8.02912 13.2692L7.89716 11.0011C7.89255 10.921 7.86736 10.8434 7.82401 10.7759L6.59761 8.86331C6.43825 8.61486 6.54616 8.28275 6.82105 8.17542L8.93742 7.34905C9.01218 7.31987 9.07817 7.27193 9.12904 7.20985L10.5689 5.45243C10.7561 5.22419 11.1053 5.22419 11.2923 5.45243Z" fill="url(#paint5_linear_894_1100)"/>
<g opacity="0.3">
<path d="M13.9632 10.9515C13.9199 11.0191 13.8947 11.0966 13.89 11.1767L13.7581 13.4449C13.7566 13.469 13.7437 13.4881 13.7388 13.511C13.7894 13.4416 13.8278 13.3629 13.8333 13.2693L13.9652 11.0012C13.9674 10.9631 13.9888 10.9302 14 10.894L13.9632 10.9515ZM15.0413 8.17549L12.925 7.34913C12.8502 7.31993 12.7842 7.27197 12.7334 7.20988L11.2935 5.4525C11.1064 5.22417 10.7572 5.22417 10.5701 5.4525L9.1302 7.20988C9.07936 7.27197 9.01338 7.31992 8.93863 7.34913L6.82222 8.17549C6.66535 8.23674 6.57146 8.37258 6.54199 8.52297C6.59273 8.45029 6.65681 8.38626 6.74695 8.35108L8.86332 7.52471C8.93809 7.49552 9.00408 7.44757 9.05494 7.38546L10.4948 5.62809C10.6819 5.39985 11.0311 5.39985 11.2182 5.62809L12.6581 7.38546C12.709 7.44757 12.7749 7.49552 12.8497 7.52471L14.9661 8.35108C15.1948 8.44041 15.2974 8.68357 15.2372 8.90644L15.2649 8.86343C15.4242 8.61493 15.3163 8.28282 15.0413 8.17549Z" fill="black"/>
</g>
<path opacity="0.2" d="M16.0081 18.0318H6.68806C6.49593 18.0318 6.30718 17.9813 6.14079 17.8852C5.9744 17.7891 5.83624 17.6509 5.74021 17.4845L1.08008 9.41309C0.984019 9.24671 0.933449 9.05798 0.933449 8.86587C0.933449 8.67375 0.984019 8.48502 1.08008 8.31864L5.44645 0.755859C5.41352 0.797379 5.37661 0.835107 5.34968 0.881763L0.689597 8.9532C0.593539 9.11958 0.542969 9.30831 0.542969 9.50043C0.542969 9.69254 0.593539 9.88127 0.689597 10.0477L5.34968 18.1191C5.44574 18.2855 5.58389 18.4237 5.75027 18.5197C5.91664 18.6158 6.10537 18.6664 6.29749 18.6664H15.6176C15.8097 18.6664 15.9985 18.6158 16.1648 18.5198C16.3312 18.4237 16.4694 18.2855 16.5655 18.1191L16.8592 17.6104C16.6534 17.8703 16.3452 18.0318 16.0081 18.0318Z" fill="#797EC2"/>
<path opacity="0.2" d="M21.611 8.9328L16.7811 0.56712C16.6815 0.394683 16.5382 0.251496 16.3658 0.151947C16.1933 0.0523976 15.9977 -6.55921e-06 15.7985 6.15782e-10H6.13874C5.93963 -5.6027e-06 5.74402 0.0524003 5.57158 0.15195C5.39914 0.251501 5.25594 0.394687 5.15637 0.56712L4.86621 1.06973L16.2978 18.8764C16.4955 18.7788 16.667 18.6304 16.7811 18.433L21.611 10.0672C21.7105 9.89473 21.7629 9.69912 21.7629 9.49999C21.7629 9.30087 21.7105 9.10525 21.611 8.9328Z" fill="#D4F8FF"/>
<defs>
<linearGradient id="paint0_linear_894_1100" x1="15.9277" y1="3.36557" x2="6.23694" y2="15.3259" gradientUnits="userSpaceOnUse">
<stop stop-color="#8890A6"/>
<stop offset="0.319" stop-color="#D7EDF0"/>
<stop offset="0.707" stop-color="#6E7796"/>
<stop offset="1" stop-color="#C4E2FF"/>
</linearGradient>
<linearGradient id="paint1_linear_894_1100" x1="5.60218" y1="17.4181" x2="17.3578" y2="0.0372011" gradientUnits="userSpaceOnUse">
<stop stop-color="#8890A6"/>
<stop offset="0.319" stop-color="#D7EDF0"/>
<stop offset="0.707" stop-color="#6E7796"/>
<stop offset="1" stop-color="#C4E2FF"/>
</linearGradient>
<linearGradient id="paint2_linear_894_1100" x1="15.8233" y1="4.00277" x2="4.12852" y2="17.1842" gradientUnits="userSpaceOnUse">
<stop stop-color="#941010"/>
<stop offset="1" stop-color="#FFA02B"/>
</linearGradient>
<linearGradient id="paint3_linear_894_1100" x1="7.94581" y1="17.8163" x2="13.1588" y2="3.41986" gradientUnits="userSpaceOnUse">
<stop stop-color="#8890A6"/>
<stop offset="0.319" stop-color="#D7EDF0"/>
<stop offset="0.707" stop-color="#6E7796"/>
<stop offset="1" stop-color="#C4E2FF"/>
</linearGradient>
<linearGradient id="paint4_linear_894_1100" x1="14.8782" y1="6.7622" x2="5.97733" y2="14.9169" gradientUnits="userSpaceOnUse">
<stop stop-color="#8890A6"/>
<stop offset="0.319" stop-color="#D7EDF0"/>
<stop offset="0.707" stop-color="#6E7796"/>
<stop offset="1" stop-color="#C4E2FF"/>
</linearGradient>
<linearGradient id="paint5_linear_894_1100" x1="8.41312" y1="13.5594" x2="14.7024" y2="4.17889" gradientUnits="userSpaceOnUse">
<stop stop-color="#8890A6"/>
<stop offset="0.319" stop-color="#D7EDF0"/>
<stop offset="0.707" stop-color="#6E7796"/>
<stop offset="1" stop-color="#C4E2FF"/>
</linearGradient>
</defs>
</svg>
