<svg width="40" height="45" viewBox="0 0 40 45" fill="none" xmlns="http://www.w3.org/2000/svg">
<path fill-rule="evenodd" clip-rule="evenodd" d="M37.7142 48H3.42857C2.51925 48 1.64718 47.6388 1.0042 46.9958C0.361223 46.3528 0 45.4807 0 44.5714V29.1429C0 28.2336 0.361223 27.3615 1.0042 26.7185C1.64718 26.0755 2.51925 25.7143 3.42857 25.7143H12.5708V24C12.5708 23.0907 12.9321 22.2187 13.575 21.5757C14.218 20.9327 15.0901 20.5715 15.9994 20.5715H25.1434V17.1429C25.1434 16.2336 25.5046 15.3615 26.1476 14.7185C26.7906 14.0756 27.6626 13.7143 28.572 13.7143H37.7142C38.6235 13.7143 39.4956 14.0756 40.1386 14.7185C40.7816 15.3615 41.1428 16.2336 41.1428 17.1429V44.5714C41.1428 45.4807 40.7816 46.3528 40.1386 46.9958C39.4956 47.6388 38.6235 48 37.7142 48ZM12.5708 29.1429H3.42857V44.5714H12.5708V29.1429ZM25.1434 24H15.9994V44.5714H25.1434V24ZM28.572 44.5714H37.7142V17.1429H28.572V22.2858V44.5714ZM25.6903 6.2092C19.2394 15.72 7.28228 18.804 7.28228 18.804C6.84171 18.9168 6.3744 18.8499 5.98315 18.6181C5.78942 18.5034 5.62019 18.3515 5.48513 18.1714C5.35007 17.9912 5.25182 17.7862 5.19599 17.568C5.14016 17.3499 5.12785 17.1229 5.15974 16.9C5.19164 16.6771 5.26714 16.4627 5.38191 16.2689C5.6137 15.8777 5.99143 15.5945 6.43199 15.4818C6.43199 15.4818 17.8183 12.5966 23.3845 3.45778L20.0125 3.42864C19.5579 3.42454 19.1235 3.24001 18.8049 2.91562C18.4863 2.59124 18.3096 2.15358 18.3137 1.69892C18.3178 1.24427 18.5023 0.809859 18.8267 0.491262C19.1511 0.172665 19.5887 -0.00402238 20.0434 6.95211e-05L27.3805 0.0652125C27.8301 0.068355 28.2604 0.24835 28.5783 0.566268C28.8963 0.884187 29.0762 1.31447 29.0794 1.76407L29.1428 8.93149C29.1469 9.38614 28.9702 9.8238 28.6516 10.1482C28.333 10.4726 27.8986 10.6571 27.444 10.6612C26.9893 10.6653 26.5516 10.4886 26.2273 10.17C25.9029 9.85141 25.7183 9.417 25.7143 8.96234L25.6903 6.2092Z" fill="#B1E0FA"/>
</svg>
