<svg width="50" height="42" viewBox="0 0 50 42" fill="none" xmlns="http://www.w3.org/2000/svg">
<path d="M42.6758 26.1867H37.7814C37.1153 26.1867 36.4704 26.2777 35.8566 26.4451C34.6459 24.065 32.174 22.4297 29.3257 22.4297H20.6743C17.826 22.4297 15.3541 24.065 14.1434 26.4451C13.5161 26.2737 12.8688 26.1868 12.2186 26.1867H7.32422C3.28564 26.1867 0 29.4724 0 33.5109V41.335C0 43.7581 1.97139 45.7295 4.39453 45.7295H45.6055C48.0286 45.7295 50 43.7581 50 41.335V33.5109C50 29.4724 46.7144 26.1867 42.6758 26.1867ZM13.3501 29.7541V42.7999H4.39453C3.58682 42.7999 2.92969 42.1428 2.92969 41.3351V33.511C2.92969 31.0879 4.90107 29.1165 7.32422 29.1165H12.2186C12.6162 29.1165 13.0013 29.1705 13.3679 29.27C13.3566 29.4311 13.3507 29.5926 13.3501 29.7541ZM33.7202 42.7999H16.2798V29.754C16.2798 27.3309 18.2512 25.3595 20.6743 25.3595H29.3257C31.7488 25.3595 33.7202 27.3309 33.7202 29.754V42.7999ZM47.0703 41.3351C47.0703 42.1428 46.4132 42.7999 45.6055 42.7999H36.6499V29.754C36.6493 29.5925 36.6434 29.431 36.6321 29.2699C37.0067 29.1681 37.3932 29.1165 37.7814 29.1164H42.6758C45.0989 29.1164 47.0703 31.0878 47.0703 33.5109V41.3351Z" fill="#B1E0FA"/>
<path d="M9.77109 12.353C6.18232 12.353 3.2627 15.2727 3.2627 18.8614C3.2626 22.4502 6.18232 25.3698 9.77109 25.3698C13.3598 25.3698 16.2795 22.4502 16.2795 18.8614C16.2795 15.2727 13.3599 12.353 9.77109 12.353ZM9.771 22.4401C7.79766 22.4401 6.19228 20.8348 6.19228 18.8614C6.19228 16.8881 7.79766 15.2827 9.771 15.2827C11.7443 15.2827 13.3497 16.8881 13.3497 18.8614C13.3497 20.8348 11.7443 22.4401 9.771 22.4401ZM24.9996 4.26953C20.2051 4.26953 16.3045 8.17012 16.3045 12.9646C16.3045 17.7592 20.2051 21.6598 24.9996 21.6598C29.7941 21.6598 33.6947 17.7592 33.6947 12.9646C33.6947 8.17021 29.7941 4.26953 24.9996 4.26953ZM24.9996 18.7301C21.8205 18.7301 19.2342 16.1437 19.2342 12.9646C19.2342 9.78564 21.8205 7.19922 24.9996 7.19922C28.1787 7.19922 30.765 9.78555 30.765 12.9646C30.765 16.1437 28.1787 18.7301 24.9996 18.7301ZM40.2281 12.353C36.6395 12.353 33.7197 15.2727 33.7197 18.8614C33.7198 22.4502 36.6395 25.3698 40.2281 25.3698C43.8169 25.3698 46.7365 22.4502 46.7365 18.8614C46.7365 15.2727 43.8169 12.353 40.2281 12.353ZM40.2281 22.4401C38.2549 22.4401 36.6494 20.8348 36.6494 18.8614C36.6495 16.8881 38.2549 15.2827 40.2281 15.2827C42.2015 15.2827 43.8068 16.8881 43.8068 18.8614C43.8068 20.8348 42.2015 22.4401 40.2281 22.4401Z" fill="#B1E0FA"/>
</svg>
