<svg width="80" height="80" viewBox="0 0 80 80" fill="none" xmlns="http://www.w3.org/2000/svg">
<path d="M40 80C62.0914 80 80 62.0914 80 40C80 17.9086 62.0914 0 40 0C17.9086 0 0 17.9086 0 40C0 62.0914 17.9086 80 40 80Z" fill="#BBEC6C"/>
<path d="M39.9996 0C39.1883 0 38.3835 0.0270422 37.5841 0.0746881C58.5504 1.32394 74.1419 18.7198 74.1419 40C74.1419 61.2802 58.5504 78.6761 37.584 79.9253C38.3835 79.973 39.1883 80 39.9996 80C62.091 80 79.9996 62.0914 79.9996 40C79.9996 17.9086 62.091 0 39.9996 0Z" fill="#A2E62E"/>
<path d="M39.9997 74.142C58.856 74.142 74.142 58.856 74.142 39.9997C74.142 21.1434 58.856 5.85742 39.9997 5.85742C21.1434 5.85742 5.85742 21.1434 5.85742 39.9997C5.85742 58.856 21.1434 74.142 39.9997 74.142Z" fill="#4FC123"/>
<path d="M39.9994 5.85742C39.1872 5.85742 38.3821 5.88784 37.584 5.94354C55.3129 7.18298 69.3108 21.9558 69.3108 39.9997C69.3108 58.0438 55.3129 72.8165 37.584 74.0559C38.3821 74.1118 39.1872 74.142 39.9994 74.142C58.8558 74.142 74.1417 58.8559 74.1417 39.9997C74.1417 21.1435 58.8558 5.85742 39.9994 5.85742Z" fill="#47A920"/>
<path d="M60.6515 33.1343L38.8583 54.9291C36.5469 57.2389 32.8028 57.2389 30.493 54.9291L19.3477 43.7838C18.0664 42.5041 18.0664 40.4277 19.3477 39.148L22.596 35.8997V35.8981L23.697 34.7971C24.9767 33.5174 27.0531 33.5174 28.3328 34.7971L33.9103 40.3746C34.5091 40.975 35.4829 40.975 36.0817 40.3746L51.9867 24.4695C53.2664 23.1898 55.3429 23.1898 56.6225 24.4695L60.6515 28.4985C61.9328 29.7798 61.9328 31.8546 60.6515 33.1343Z" fill="#D1F19E"/>
<path d="M36.0814 40.3748L34.2351 42.221C33.5076 42.9502 32.3277 42.955 31.5921 42.2323L25.947 36.6902C25.0408 35.7824 23.7353 35.5216 22.5957 35.8999V35.8983L23.6967 34.7973C24.9764 33.5176 27.0528 33.5176 28.3325 34.7973L33.91 40.3748C34.5088 40.9752 35.4826 40.9752 36.0814 40.3748ZM60.6519 28.4992L56.6226 24.4699C55.3424 23.1897 53.2669 23.1897 51.9868 24.4699L50.945 25.5117C51.8828 25.4243 52.851 25.7391 53.5689 26.4572L55.8208 28.4993C57.101 29.7795 57.101 31.855 55.8208 33.1352L35.834 53.3843C34.4071 54.8113 32.4323 55.3555 30.5867 55.0194C32.9031 57.2377 36.5783 57.2089 38.8574 54.9298L60.652 33.1352C61.932 31.855 61.932 29.7793 60.6519 28.4992Z" fill="#BBEC6C"/>
</svg>
