<svg width="43" height="40" viewBox="0 0 43 40" fill="none" xmlns="http://www.w3.org/2000/svg">
<path d="M10.9746 18.2412C12.6381 17.6925 14.4039 17.5262 16.1406 17.7539H16.1416C19.9959 18.2042 23.5778 19.969 26.2832 22.751H26.2822C29.0608 25.4549 30.8239 29.0329 31.2744 32.8838L31.3125 33.21C31.4804 34.8426 31.3022 36.4938 30.7871 38.0547C30.2378 39.7196 29.3196 41.239 28.1016 42.5L25.0664 45.5352L24.8867 45.3516L25.0654 45.5352C23.9783 46.5921 22.6922 47.4226 21.2812 47.9775C19.8702 48.5325 18.3626 48.8009 16.8467 48.7676H16.8457C12.4866 48.6635 8.3441 46.8477 5.31348 43.7129V43.7139C-0.600651 37.7997 -1.48042 28.932 3.49414 23.959L6.52539 20.9297L6.52832 20.9268C7.78946 19.7087 9.30953 18.7905 10.9746 18.2412ZM3.32031 28.1104C1.46668 32.2677 2.72904 37.9808 6.88672 42.1377C11.047 46.2972 16.7501 47.5572 20.9062 45.7061C20.5697 45.7325 20.2324 45.75 19.8945 45.75C19.4308 45.75 18.9604 45.7258 18.4844 45.6787H18.4795C14.6276 45.2279 11.0483 43.4649 8.34277 40.6865C5.56152 37.9804 3.79677 34.3991 3.3457 30.5449V30.541C3.26289 29.7323 3.25454 28.9186 3.32031 28.1104ZM14.2676 19.9092C13.2008 19.9365 12.1452 20.1498 11.1494 20.54C10.0144 20.9849 8.97849 21.6503 8.10352 22.499L8.10449 22.5C7.1213 23.527 6.38221 24.7623 5.94238 26.1143C5.55752 27.2974 5.41067 28.5434 5.50781 29.7803L5.56445 30.3096V30.3135C5.93755 33.4477 7.3113 36.3723 9.47266 38.6572L9.91602 39.1055L9.9209 39.1113C12.2651 41.5279 15.3697 43.0648 18.7129 43.4629H18.7178C20.1265 43.6537 21.5602 43.5247 22.9121 43.085C24.2623 42.6457 25.4954 41.9071 26.5215 40.9258C27.503 39.8994 28.2414 38.6659 28.6807 37.3154C29.1205 35.9632 29.2504 34.5292 29.0596 33.1201L29.0586 33.1162C28.6612 29.7732 27.1249 26.6688 24.708 24.3252L24.7021 24.3193C22.3582 21.9013 19.2518 20.3646 15.9082 19.9688V19.9678C15.5163 19.9287 15.1237 19.9092 14.7314 19.9092H14.2676ZM37.0518 0.495117C39.6234 -0.072033 42.0258 0.353578 43.6367 1.96582L46.207 4.53711C47.8176 6.14723 48.2426 8.54896 47.6758 11.1201C47.1086 13.6926 45.5455 16.4674 43.127 18.8887H43.126C40.034 21.9746 36.3627 23.6734 33.2695 23.6768C32.445 23.7082 31.6225 23.5749 30.8506 23.2832C30.0786 22.9914 29.3731 22.5476 28.7754 21.9785L28.7705 21.9736L26.2744 19.4785H26.2705L26.1953 19.4033C24.5994 17.8065 24.1275 15.3755 24.7969 12.6035L24.7988 12.5967C25.5863 9.72141 27.1371 7.11203 29.2861 5.0459C31.7066 2.62627 34.48 1.06231 37.0518 0.495117ZM45.292 7.10742C45.2533 7.66419 45.1678 8.21759 45.0342 8.76074L45.0322 8.7666C44.2445 11.6413 42.6951 14.2501 40.5469 16.3164L40.5459 16.3154C37.6837 19.1754 34.3252 20.8427 31.3877 21.0762C32.4784 21.5408 33.9239 21.5331 35.5195 21.0625C37.5061 20.4765 39.6728 19.1874 41.5479 17.3115C43.4286 15.4282 44.719 13.2524 45.3018 11.2607C45.7725 9.65183 45.7727 8.19761 45.292 7.10742ZM39.1982 2.50977L39.1855 2.51074C36.7165 2.51083 33.501 3.98145 30.8574 6.625L30.8535 6.62891C28.9947 8.40812 27.6501 10.6557 26.9609 13.1348C26.4641 15.1973 26.7859 16.8419 27.7686 17.8262C28.8253 18.8808 30.6103 19.119 32.6787 18.5674C34.7372 18.0183 37.015 16.6984 38.9736 14.7402L38.9775 14.7363C40.8356 12.9565 42.1796 10.7089 42.8672 8.22949C43.3632 6.16776 43.0422 4.52606 42.0586 3.54004H42.0576C41.6743 3.18921 41.226 2.91697 40.7373 2.74023C40.2449 2.56218 39.7212 2.48347 39.1982 2.50977ZM2.75195 1.65918C3.97691 0.4335 5.7891 0.0189101 7.85156 0.416992L8.26758 0.506836L8.27441 0.508789C10.5514 1.1311 12.6178 2.35813 14.2539 4.05957H14.2529C16.1782 5.98447 17.4188 8.19685 17.8623 10.2559C18.3057 12.3147 17.9556 14.2505 16.6504 15.5566L16.6455 15.5605C16.1585 16.0254 15.5835 16.3881 14.9541 16.627C14.3275 16.8647 13.6599 16.9745 12.9902 16.9512C10.5139 16.9519 7.59745 15.6076 5.15234 13.1631C3.45123 11.526 2.22436 9.45894 1.60156 7.18164L1.59961 7.1748C1.06024 4.94079 1.44547 2.96658 2.75195 1.65918ZM6.37988 2.50098C6.00472 2.48087 5.62912 2.53552 5.27539 2.66211C4.92274 2.78835 4.59793 2.98286 4.32129 3.23535C3.63024 3.93135 3.39765 5.1171 3.76465 6.63867L3.86816 6.98926C4.37973 8.61653 5.26762 10.1005 6.45996 11.3203L6.71973 11.5781L6.72461 11.582C8.2039 13.0621 9.91638 14.0639 11.4551 14.4873C13.0047 14.9136 14.3142 14.7405 15.0752 13.9814C15.8348 13.2217 16.0073 11.9123 15.5811 10.3623C15.1579 8.82347 14.1571 7.11132 12.6797 5.63379L12.6758 5.62988L12.8613 5.45215L12.6758 5.62891C11.3257 4.21667 9.6188 3.19584 7.73633 2.67285V2.67188C7.29622 2.56215 6.8442 2.50524 6.39062 2.50098H6.37988Z" fill="#B1E0FA" stroke="#B1E0FA" stroke-width="0.514202"/>
</svg>
